<svg width="166" height="308" viewBox="0 0 166 308" fill="none" xmlns="http://www.w3.org/2000/svg">
<path d="M5.52734 92.5747C6.81734 94.3047 9.70733 92.1547 14.8773 89.5747C20.0473 86.9947 15.7374 63.3047 15.7374 63.3047C15.7374 63.3047 7.17734 64.1347 6.36734 72.3047C5.55734 80.4747 5.52734 92.5747 5.52734 92.5747Z" fill="#2FACBB"/>
<path opacity="0.25" d="M5.52734 92.5747C6.81734 94.3047 9.70733 92.1547 14.8773 89.5747C20.0473 86.9947 15.7374 63.3047 15.7374 63.3047C15.7374 63.3047 7.17734 64.1347 6.36734 72.3047C5.55734 80.4747 5.52734 92.5747 5.52734 92.5747Z" fill="black"/>
<path d="M46.2374 46.6643C51.2374 46.1143 62.9774 50.9243 65.1074 54.6643C67.3474 58.6143 79.1074 113.834 75.2974 119.454C70.4974 126.454 45.0974 141.754 33.4174 142.454C23.7874 143.034 13.8474 135.054 12.1474 132.614C9.36736 128.614 7.14735 70.8943 9.72735 65.7743C13.9573 57.4943 39.8074 47.3543 46.2374 46.6643Z" fill="#2FACBB"/>
<path opacity="0.1" d="M46.2374 46.6643C51.2374 46.1143 62.9774 50.9243 65.1074 54.6643C67.3474 58.6143 79.1074 113.834 75.2974 119.454C70.4974 126.454 45.0974 141.754 33.4174 142.454C23.7874 143.034 13.8474 135.054 12.1474 132.614C9.36736 128.614 7.14735 70.8943 9.72735 65.7743C13.9573 57.4943 39.8074 47.3543 46.2374 46.6643Z" fill="white"/>
<path opacity="0.2" d="M46.2374 46.6643C51.2374 46.1143 62.9774 50.9243 65.1074 54.6643C67.3474 58.6143 79.1074 113.834 75.2974 119.454C70.4974 126.454 45.0974 141.754 33.4174 142.454C23.7874 143.034 13.8474 135.054 12.1474 132.614C9.36736 128.614 7.14735 70.8943 9.72735 65.7743C13.9573 57.4943 39.8074 47.3543 46.2374 46.6643Z" fill="black"/>
<path d="M8.75742 95.2543C8.68742 92.8343 8.63742 90.4443 8.60742 88.1343C8.60742 87.2043 8.60742 86.2943 8.60742 85.3943C8.60742 83.5943 8.60742 81.8643 8.60742 80.2243C8.60742 79.4043 8.60742 78.6043 8.60742 77.8243C8.60742 76.6643 8.63742 75.5643 8.69742 74.5243C8.69742 73.5243 8.7774 72.5243 8.8374 71.6343L8.89743 70.7643C8.92081 69.0661 9.19716 67.381 9.71741 65.7643C9.84244 65.5191 9.98273 65.282 10.1374 65.0543C10.1374 64.9743 10.2374 64.8943 10.2874 64.8143L10.6374 64.3243L10.8574 64.0343L11.2474 63.5743L11.4974 63.2843C11.6974 63.0643 11.9074 62.8343 12.1274 62.6143L12.5774 62.1743L12.8774 61.8843L13.3974 61.4143L13.6674 61.1743L14.2774 60.6543C18.9774 62.1343 23.4274 63.5343 23.5674 63.6043C23.8574 63.7643 28.7274 66.1143 29.1474 73.1843L31.7574 101.764L32.0074 104.474C32.2874 108.264 38.7374 142.894 27.8574 141.864H27.4274C20.0074 139.974 13.5074 134.604 12.1674 132.674C11.8522 132.091 11.6359 131.459 11.5274 130.804C11.4474 130.444 11.3574 130.034 11.2774 129.574C11.2774 129.354 11.1974 129.114 11.1574 128.864C11.0374 128.134 10.9174 127.304 10.7974 126.394C10.7974 126.094 10.7274 125.784 10.6874 125.464C10.1174 120.684 9.62742 114.044 9.25742 106.914C9.18742 105.494 9.1174 104.044 9.0574 102.594C9.0574 101.594 8.97741 100.654 8.93741 99.6743C8.93741 99.1943 8.93742 98.6743 8.88742 98.2143C8.82742 97.2543 8.75742 96.2543 8.75742 95.2543Z" fill="#2FACBB"/>
<path opacity="0.4" d="M9.05713 69.0543C9.12465 67.9414 9.35026 66.8437 9.72714 65.7943C13.9571 57.4943 39.8072 47.3543 46.2372 46.6643C51.2372 46.1143 62.9771 50.9243 65.1071 54.6643C65.7861 56.2818 66.3248 57.9546 66.7171 59.6643C57.1071 65.9343 32.1271 80.2143 29.3571 79.4843C25.9571 78.5843 9.35714 69.4843 9.06714 69.0043L9.05713 69.0543Z" fill="black"/>
<path d="M7.69708 106.784C7.98708 106.604 12.1171 102.904 12.6171 102.594C13.4771 102.064 27.3671 109.804 28.7171 111.204C29.6471 112.204 29.7171 128.514 29.3171 129.714C29.1671 130.144 24.5571 133.474 24.4071 133.904C23.9871 135.104 9.34708 127.274 8.29708 125.164C7.24708 123.054 6.42708 107.574 7.69708 106.784Z" fill="#2FACBB"/>
<path opacity="0.18" d="M7.69708 106.784C7.98708 106.604 12.1171 102.904 12.6171 102.594C13.4771 102.064 27.3671 109.804 28.7171 111.204C29.6471 112.204 29.7171 128.514 29.3171 129.714C29.1671 130.144 24.5571 133.474 24.4071 133.904C23.9871 135.104 9.34708 127.274 8.29708 125.164C7.24708 123.054 6.42708 107.574 7.69708 106.784Z" fill="black"/>
<path d="M23.757 115.394C24.697 116.394 24.757 132.704 24.367 133.904C23.977 135.104 9.30704 127.274 8.25704 125.164C7.20704 123.054 6.38704 107.574 7.65704 106.784C8.56704 106.254 22.457 113.994 23.757 115.394Z" fill="#2FACBB"/>
<path opacity="0.4" d="M12.6073 102.605C12.1173 102.905 7.98727 106.605 7.69727 106.785C8.55727 106.255 22.4573 113.995 23.7973 115.395L28.7573 111.255C27.3773 109.805 13.4773 102.055 12.6073 102.605Z" fill="black"/>
<path opacity="0.3" d="M23.757 115.394C24.697 116.394 24.757 132.704 24.367 133.904C23.977 135.104 9.30704 127.274 8.25704 125.164C7.20704 123.054 6.38704 107.574 7.65704 106.784C8.56704 106.254 22.457 113.994 23.757 115.394Z" fill="black"/>
<path d="M28.7573 111.254C27.7573 110.704 24.9373 112.514 23.7573 113.704C22.5773 114.894 21.6573 120.094 18.4673 121.184C15.2773 122.274 10.3173 118.354 9.11733 115.674C7.91733 112.994 6.27735 107.304 7.67735 105.094C9.07735 102.884 11.7374 101.534 14.1474 102.584C16.5574 103.634 28.2173 108.694 28.7573 111.254Z" fill="#2FACBB"/>
<path opacity="0.1" d="M28.7573 111.254C27.7573 110.704 24.9373 112.514 23.7573 113.704C22.5773 114.894 21.6573 120.094 18.4673 121.184C15.2773 122.274 10.3173 118.354 9.11733 115.674C7.91733 112.994 6.27735 107.304 7.67735 105.094C9.07735 102.884 11.7374 101.534 14.1474 102.584C16.5574 103.634 28.2173 108.694 28.7573 111.254Z" fill="black"/>
<path d="M14.2373 114.705C14.6335 114.908 14.9667 115.216 15.201 115.595C15.4353 115.974 15.562 116.409 15.5673 116.855C15.5839 117.03 15.5539 117.207 15.4802 117.367C15.4065 117.527 15.2917 117.665 15.1475 117.767C15.0034 117.868 14.8349 117.93 14.6592 117.945C14.4836 117.961 14.307 117.93 14.1473 117.855C13.7471 117.657 13.4109 117.35 13.1774 116.97C12.9439 116.59 12.8225 116.151 12.8273 115.705C12.8473 114.815 13.4873 114.375 14.2373 114.705Z" fill="#37474F"/>
<path d="M29.7575 79.5643C29.7575 79.5643 27.3875 73.0043 18.8675 68.9943C10.3475 64.9843 10.2275 66.4843 8.00747 71.2543C6.00747 75.5343 6.37747 90.8543 6.39747 92.3243C6.41747 93.7943 4.63747 93.6743 4.11747 84.3243C3.59747 74.9743 4.11746 65.9443 12.3775 59.6743C23.4575 51.2443 41.1675 44.8543 49.8675 45.9843C58.5675 47.1143 66.5975 50.7543 66.7475 59.7243C66.7575 59.7243 56.8975 75.4543 29.7575 79.5643Z" fill="#2FACBB"/>
<path opacity="0.1" d="M29.7575 79.5643C29.7575 79.5643 27.3875 73.0043 18.8675 68.9943C10.3475 64.9843 10.2275 66.4843 8.00747 71.2543C6.00747 75.5343 6.37747 90.8543 6.39747 92.3243C6.41747 93.7943 4.63747 93.6743 4.11747 84.3243C3.59747 74.9743 4.11746 65.9443 12.3775 59.6743C23.4575 51.2443 41.1675 44.8543 49.8675 45.9843C58.5675 47.1143 66.5975 50.7543 66.7475 59.7243C66.7575 59.7243 56.8975 75.4543 29.7575 79.5643Z" fill="black"/>
<path d="M52.2872 57.2544C52.2872 57.2544 55.6072 58.8744 55.9472 60.9044C56.2872 62.9344 57.6572 67.7444 56.9472 69.1444C56.2372 70.5444 53.6672 70.9244 53.2572 70.0044C52.8472 69.0844 52.0572 63.2644 51.3872 61.7944C50.7172 60.3244 48.1372 58.5844 48.1372 58.5844L52.2872 57.2544Z" fill="#2FACBB"/>
<path d="M33.1472 63.3545C33.1472 63.3545 36.4372 64.7345 36.7672 66.7545C37.0972 68.7745 38.5072 73.4045 37.7672 74.8045C37.0272 76.2045 34.4872 76.5845 34.0772 75.6645C33.6672 74.7445 32.8772 68.9245 32.2072 67.4545C31.5372 65.9845 28.9272 64.6045 28.9272 64.6045L33.1472 63.3545Z" fill="#2FACBB"/>
<g opacity="0.3">
<path d="M52.2872 57.2544C52.2872 57.2544 55.6072 58.8744 55.9472 60.9044C56.2872 62.9344 57.6572 67.7444 56.9472 69.1444C56.2372 70.5444 53.6672 70.9244 53.2572 70.0044C52.8472 69.0844 52.0572 63.2644 51.3872 61.7944C50.7172 60.3244 48.1372 58.5844 48.1372 58.5844L52.2872 57.2544Z" fill="white"/>
<path d="M33.1472 63.3545C33.1472 63.3545 36.4372 64.7345 36.7672 66.7545C37.0972 68.7745 38.5072 73.4045 37.7672 74.8045C37.0272 76.2045 34.4872 76.5845 34.0772 75.6645C33.6672 74.7445 32.8772 68.9245 32.2072 67.4545C31.5372 65.9845 28.9272 64.6045 28.9272 64.6045L33.1472 63.3545Z" fill="white"/>
</g>
<path d="M54.8472 28.9445C56.6772 28.3045 58.9372 28.8644 61.1772 30.7844C65.6672 34.6344 68.4272 42.4544 67.3472 48.2644C66.7772 51.3144 65.2572 53.1945 63.3472 53.7445L12.7172 69.8444L3.86719 45.1844L18.1572 42.7844L23.3872 40.9844L40.9672 35.1345L43.3972 34.2244L54.8472 28.9445Z" fill="#455A64"/>
<path d="M10.3273 46.9447C14.8173 50.7847 17.5773 58.6147 16.4973 64.4247C15.4173 70.2347 10.8973 71.8247 6.40725 67.9847C1.91725 64.1447 -0.852744 56.3147 0.237256 50.5047C1.32726 44.6947 5.83727 43.0947 10.3273 46.9447Z" fill="#37474F"/>
<path d="M42.3773 34.5845C42.3773 34.5845 53.1574 40.6745 52.2874 57.2445L48.1173 58.5745C48.1173 58.5745 49.1174 42.5745 37.2974 36.3445L42.3773 34.5845Z" fill="#2FACBB"/>
<path d="M23.3374 40.9844C23.3374 40.9844 34.1274 46.7244 33.2574 63.2944L29.0674 64.6244C29.0674 64.6244 29.9274 49.0344 18.0674 42.7844L23.3374 40.9844Z" fill="#2FACBB"/>
<g opacity="0.15">
<path d="M50.8675 45.9844C52.0586 49.6154 52.5407 53.4414 52.2875 57.2544L48.1175 58.5844C48.2206 54.8662 47.6654 51.1592 46.4775 47.6344L50.8675 45.9844Z" fill="black"/>
<path d="M32.1274 53.0044C33.0909 56.3306 33.4732 59.7982 33.2574 63.2544L29.0674 64.5844C29.1332 61.2164 28.6398 57.8609 27.6074 54.6544L32.1274 53.0044Z" fill="black"/>
</g>
<path d="M3.75731 52.7345C5.44731 51.6245 7.28732 53.0645 8.14732 54.5145C8.80189 55.7674 9.10918 57.1727 9.03731 58.5845C9.09856 59.1767 8.98743 59.774 8.7173 60.3045C8.4173 60.7445 7.89731 60.9645 7.50731 60.5145C7.34731 60.3345 7.50731 59.7845 7.78731 59.8445C8.06731 59.9045 7.96731 59.9845 8.03731 59.8445C8.07315 59.6629 8.07315 59.4761 8.03731 59.2945C8.01886 58.7484 7.94515 58.2057 7.81731 57.6745C7.69794 56.8431 7.43754 56.0382 7.04732 55.2945C6.67628 54.6244 6.14773 54.0547 5.50731 53.6345C4.95731 53.3145 4.1273 53.1945 3.9373 53.9545C3.6373 55.1745 4.37731 56.8045 4.77731 57.9545C5.30735 59.6372 6.14483 61.2071 7.2473 62.5845C7.8773 63.3245 9.63731 64.9545 10.7273 64.2745C11.8173 63.5945 11.7273 61.5145 11.7273 60.5345C11.6961 58.9272 11.3882 57.3373 10.8173 55.8345C10.2651 54.0882 9.3862 52.4627 8.22731 51.0445C7.74809 50.5129 7.13776 50.1163 6.45731 49.8945C5.90731 49.7145 4.63731 49.3345 4.45731 50.1145C4.45731 50.3045 4.0373 50.6745 3.8473 50.4045C3.2073 49.4545 4.12731 48.6245 5.06731 48.4045C5.80195 48.2376 6.56504 48.2409 7.2982 48.4143C8.03136 48.5876 8.71517 48.9263 9.29732 49.4045C11.0173 50.7045 12.0073 53.1245 12.7773 55.0845C13.6306 57.1785 14.0031 59.4373 13.8673 61.6945C13.7373 63.4545 13.1973 65.6945 11.2173 66.1445C9.2373 66.5945 6.8473 65.1445 5.6273 63.5045C4.29175 61.5882 3.37828 59.4102 2.94731 57.1145C2.57731 55.6845 2.32731 53.6445 3.75731 52.7345Z" fill="#0C1C33"/>
<path d="M76.5475 261.425L75.4575 245.895L94.8175 244.595C94.8175 244.595 93.5675 256.785 93.4575 262.385C93.4075 265.035 95.0975 270.075 95.0975 270.075C95.0975 270.075 87.3475 273.705 83.4675 271.955C79.5875 270.205 77.2175 263.955 77.3575 262.805L76.5475 261.425Z" fill="#E69799"/>
<path d="M116.428 289.635C116.698 289.635 116.717 292.135 115.157 293.245C110.975 295.685 106.031 296.473 101.298 295.455C94.8575 294.085 91.5075 291.815 89.0975 289.455C86.6875 287.095 83.2975 283.785 80.4075 282.905C77.8221 281.971 75.4442 280.541 73.4075 278.695C72.5975 277.795 73.0475 274.125 73.0475 274.125L116.428 289.635Z" fill="#0C1C33"/>
<path d="M76.4572 259.945C76.4572 259.945 76.0871 260.095 75.8471 260.945C75.5571 261.945 75.0771 264.875 74.4971 266.515C73.5645 269.387 73.0788 272.385 73.0571 275.405C73.2471 277.325 78.2471 280.035 81.0071 281.335C84.2218 283.046 87.1613 285.23 89.7271 287.815C92.5671 290.545 98.7271 293.655 103.027 293.985C108.027 294.365 113.847 293.245 115.347 291.075C117.207 288.385 118.667 285.205 111.517 281.195C110.167 280.435 105.467 277.195 103.877 275.975C99.5571 272.775 96.5771 269.975 94.8771 264.765C94.7643 264.136 94.4353 263.567 93.9471 263.155C93.5057 262.921 93.0015 262.834 92.5071 262.905C91.2471 262.965 86.2471 263.225 85.0671 263.655C83.8871 264.085 82.5571 264.465 82.4671 265.725C82.4539 266.161 82.5113 266.597 82.6371 267.015C82.7071 267.285 82.7471 267.625 82.4971 267.765C82.2471 267.905 81.9971 267.705 81.8171 267.515C81.1513 266.723 80.5525 265.876 80.0271 264.985C79.5014 264.184 78.9235 263.419 78.2971 262.695C77.8768 262.416 77.4759 262.108 77.0971 261.775C76.6742 261.26 76.4475 260.611 76.4572 259.945Z" fill="#455A64"/>
<path d="M89.7573 287.805C88.5573 286.655 87.2673 285.525 85.9673 284.495C85.9673 284.495 94.2573 290.445 97.9673 288.365C100.387 287.035 99.4673 285.085 99.4573 284.495C99.4473 283.905 107.877 280.385 110.117 280.315C110.707 280.705 111.187 281.025 111.507 281.185C117.117 283.945 117.637 286.955 116.337 290.565C114.837 292.735 109.587 294.675 103.097 294.125C98.8573 293.775 92.5673 290.535 89.7573 287.805Z" fill="#37474F"/>
<path d="M99.0174 282.715C103.487 284.915 101.427 285.595 100.117 285.715C98.8074 285.835 91.4074 280.715 86.9874 276.595C82.3674 272.335 78.9874 266.855 77.2474 265.285C76.6074 264.705 75.9274 263.995 75.3174 263.335C75.5274 262.335 75.7074 261.445 75.8474 260.975C76.0874 260.135 76.4574 259.975 76.4574 259.975C76.5706 260.618 76.8011 261.235 77.1374 261.795C77.5162 262.128 77.9171 262.435 78.3374 262.715C78.9637 263.439 79.5416 264.204 80.0674 265.005C80.5928 265.896 81.1915 266.742 81.8574 267.535C85.4574 272.865 94.5474 280.515 99.0174 282.715Z" fill="#37474F"/>
<path d="M99.8472 284.975C99.7437 284.965 99.6458 284.923 99.5672 284.855C99.5249 284.813 99.4913 284.763 99.4683 284.708C99.4454 284.653 99.4336 284.595 99.4336 284.535C99.4336 284.475 99.4454 284.417 99.4683 284.362C99.4913 284.307 99.5249 284.257 99.5672 284.215C101.017 282.755 107.567 279.555 110.917 280.215C110.978 280.223 111.037 280.244 111.089 280.276C111.142 280.308 111.187 280.351 111.222 280.401C111.258 280.451 111.283 280.508 111.295 280.568C111.308 280.628 111.308 280.691 111.296 280.751C111.283 280.811 111.259 280.868 111.224 280.918C111.188 280.969 111.143 281.012 111.091 281.044C111.039 281.076 110.98 281.097 110.919 281.106C110.859 281.115 110.797 281.111 110.737 281.095C107.587 280.495 101.377 283.695 100.227 284.855C100.177 284.902 100.116 284.937 100.051 284.957C99.9849 284.978 99.9155 284.984 99.8472 284.975Z" fill="#0C1C33"/>
<path d="M96.0275 282.255C95.9218 282.246 95.8226 282.2 95.7475 282.125C95.7055 282.084 95.6721 282.035 95.6493 281.981C95.6265 281.927 95.6147 281.868 95.6147 281.81C95.6147 281.751 95.6265 281.693 95.6493 281.639C95.6721 281.585 95.7055 281.536 95.7475 281.495C97.1975 280.035 103.748 276.835 107.098 277.495C107.156 277.504 107.211 277.526 107.261 277.557C107.311 277.589 107.354 277.63 107.388 277.678C107.421 277.727 107.445 277.782 107.457 277.84C107.469 277.897 107.469 277.957 107.458 278.015C107.433 278.134 107.363 278.239 107.262 278.306C107.161 278.374 107.037 278.398 106.918 278.375C103.758 277.775 97.5475 280.975 96.4075 282.125C96.3573 282.173 96.2974 282.209 96.2318 282.231C96.1662 282.254 96.0965 282.262 96.0275 282.255Z" fill="#0C1C33"/>
<path d="M92.1874 279.555C92.0827 279.549 91.9834 279.507 91.9074 279.435C91.8243 279.349 91.7778 279.234 91.7778 279.115C91.7778 278.995 91.8243 278.88 91.9074 278.795C93.3574 277.335 99.9074 274.135 103.257 274.795C103.316 274.805 103.372 274.828 103.422 274.86C103.472 274.893 103.515 274.935 103.548 274.984C103.582 275.034 103.605 275.089 103.617 275.147C103.629 275.206 103.629 275.266 103.617 275.325C103.593 275.444 103.523 275.549 103.422 275.616C103.32 275.683 103.197 275.708 103.077 275.685C99.9274 275.085 93.7174 278.275 92.5674 279.435C92.5184 279.484 92.4583 279.52 92.3921 279.541C92.3259 279.562 92.2557 279.567 92.1874 279.555Z" fill="#0C1C33"/>
<path d="M88.6773 276.615C88.5716 276.606 88.4724 276.56 88.3973 276.485C88.355 276.443 88.3214 276.393 88.2984 276.338C88.2755 276.283 88.2637 276.224 88.2637 276.165C88.2637 276.105 88.2755 276.046 88.2984 275.991C88.3214 275.936 88.355 275.887 88.3973 275.845C89.8373 274.395 96.3973 271.195 99.7373 271.845C99.7955 271.854 99.8512 271.876 99.9011 271.907C99.9509 271.939 99.9939 271.98 100.028 272.029C100.061 272.077 100.085 272.132 100.097 272.19C100.109 272.247 100.109 272.307 100.097 272.365C100.087 272.424 100.064 272.481 100.031 272.532C99.9975 272.583 99.9544 272.626 99.904 272.66C99.8535 272.693 99.7968 272.717 99.7373 272.728C99.6777 272.739 99.6165 272.738 99.5573 272.725C96.4073 272.125 90.1973 275.325 89.0473 276.475C88.9995 276.524 88.9416 276.561 88.8777 276.586C88.8138 276.61 88.7454 276.62 88.6773 276.615Z" fill="#0C1C33"/>
<path d="M85.2473 273.675C85.1464 273.666 85.0513 273.624 84.9774 273.555C84.9338 273.514 84.899 273.464 84.8753 273.409C84.8516 273.354 84.8394 273.295 84.8394 273.235C84.8394 273.175 84.8516 273.115 84.8753 273.06C84.899 273.005 84.9338 272.956 84.9774 272.915C86.9774 270.845 93.7274 268.275 97.1074 268.915C97.166 268.925 97.2219 268.948 97.2718 268.98C97.3217 269.013 97.3647 269.055 97.3982 269.104C97.4317 269.154 97.455 269.209 97.4669 269.268C97.4788 269.326 97.4789 269.386 97.4673 269.445C97.441 269.562 97.3697 269.664 97.2687 269.73C97.1678 269.795 97.0453 269.819 96.9274 269.795C93.9274 269.215 87.4174 271.685 85.6474 273.525C85.5963 273.578 85.5338 273.62 85.4646 273.646C85.3953 273.672 85.321 273.682 85.2473 273.675Z" fill="#0C1C33"/>
<path d="M46.1173 266.485L51.1673 247.615L32.4173 243.985L31.4173 262.765C31.4173 262.765 29.7773 267.765 30.7773 269.545C31.7773 271.325 43.0373 273.545 44.1173 272.445C45.1973 271.345 46.1173 266.485 46.1173 266.485Z" fill="#E69799"/>
<path d="M43.0573 296.415C42.3973 300.665 41.3873 303.415 39.4473 305.635C37.5073 307.855 34.1773 308.155 30.9473 306.885C27.7173 305.615 23.6673 302.975 23.0473 299.125C22.4273 295.275 22.8473 292.755 23.9473 288.895L43.0573 296.415Z" fill="#0C1C33"/>
<path d="M31.3771 262.765C30.0071 262.645 30.2471 266.015 29.3771 271.765C28.4371 277.975 25.4271 282.765 24.2271 287.705C22.8571 293.365 22.9771 296.015 24.9671 299.885C26.9571 303.755 34.7872 308.495 39.2372 304.115C42.8772 300.545 43.4071 296.025 43.6271 290.185C43.6782 285.24 44.012 280.302 44.6271 275.395C45.2771 271.095 47.2471 267.175 46.1171 266.505C45.9671 267.135 44.6371 271.505 43.8671 271.365C43.8553 270.815 43.8989 270.266 43.9971 269.725C44.0594 269.476 44.0702 269.218 44.0289 268.965C43.9877 268.712 43.8952 268.471 43.7571 268.255C43.1205 267.72 42.3872 267.313 41.5971 267.055C40.2771 266.615 37.9171 266.055 36.5971 265.705C35.9271 265.545 35.2471 265.405 34.5971 265.305C34.0231 265.2 33.437 265.18 32.8572 265.245C32.699 265.26 32.5462 265.31 32.4096 265.392C32.2731 265.473 32.1561 265.583 32.0671 265.715C31.9837 265.921 31.9396 266.142 31.9371 266.365C31.9079 266.766 31.8169 267.161 31.6671 267.535C31.5971 267.695 31.4471 267.885 31.2571 267.805C31.1893 267.77 31.1343 267.714 31.1001 267.646C31.0659 267.578 31.0544 267.5 31.0671 267.425C31.0771 266.715 31.3171 263.125 31.3771 262.765Z" fill="#455A64"/>
<path d="M24.6876 286.085C24.4776 286.895 23.1876 292.305 24.8076 293.575C26.4276 294.845 27.9576 290.765 27.9576 290.765C27.9576 290.765 32.3876 290.285 38.4776 293.765C38.0776 294.615 38.7876 297.765 40.5776 297.385C42.3676 297.005 43.5776 290.795 43.5776 290.705C43.3476 296.305 42.7376 300.705 39.2076 304.135C34.7576 308.515 26.9176 303.775 24.9376 299.905C22.9576 296.035 22.8276 293.385 24.1976 287.725C24.3676 287.115 24.5176 286.585 24.6876 286.085Z" fill="#37474F"/>
<path d="M28.4172 291.255C28.2072 293.345 25.9271 292.255 26.0871 289.255C26.2471 286.255 28.0871 279.105 28.8771 274.255C29.5471 267.255 30.0071 262.655 31.3771 262.775V262.985C31.3771 262.985 31.0872 266.985 31.0472 267.425C30.6372 271.695 30.2571 280.005 29.4971 283.845C28.9792 286.289 28.6184 288.764 28.4172 291.255Z" fill="#37474F"/>
<path d="M37.7573 293.555C38.5477 291.213 39.1956 288.825 39.6973 286.405C40.5073 282.605 43.1073 275.035 44.4073 270.955C44.8073 270.295 46.1173 266.485 46.1173 266.485C47.0473 266.785 45.9573 270.425 45.4473 272.125C44.9373 273.825 44.3274 275.645 43.6774 278.125C42.0674 282.925 41.6773 290.215 40.6273 292.975C39.5773 295.735 37.1273 295.545 37.7573 293.555Z" fill="#37474F"/>
<path d="M38.5972 293.915C38.5341 293.9 38.4735 293.877 38.4172 293.845C35.2852 291.993 31.682 291.093 28.0472 291.255C27.9151 291.266 27.7832 291.23 27.6752 291.153C27.5671 291.076 27.4899 290.963 27.4572 290.835C27.4469 290.775 27.4498 290.714 27.4658 290.656C27.4817 290.598 27.5102 290.544 27.5494 290.498C27.5886 290.453 27.6373 290.416 27.6923 290.391C27.7472 290.366 27.8069 290.354 27.8672 290.355C31.7604 290.174 35.6199 291.152 38.9572 293.165C39.0115 293.195 39.0589 293.235 39.0967 293.284C39.1345 293.333 39.1618 293.39 39.1768 293.45C39.1918 293.51 39.1943 293.572 39.184 293.633C39.1738 293.695 39.151 293.753 39.1172 293.805C39.0503 293.871 38.9656 293.917 38.8734 293.936C38.7812 293.956 38.6853 293.948 38.5972 293.915Z" fill="#0C1C33"/>
<path d="M40.1373 289.545C40.0779 289.534 40.0205 289.514 39.9673 289.485C36.4217 287.505 32.4181 286.491 28.3573 286.545C28.2259 286.551 28.0963 286.512 27.9906 286.433C27.8849 286.355 27.8095 286.242 27.7773 286.115C27.7702 286.054 27.7761 285.993 27.7945 285.935C27.8129 285.877 27.8435 285.823 27.8841 285.778C27.9248 285.733 27.9746 285.696 28.0304 285.672C28.0861 285.647 28.1464 285.634 28.2074 285.635C32.5012 285.561 36.737 286.635 40.4773 288.745C40.5319 288.773 40.58 288.812 40.6189 288.86C40.6578 288.907 40.6865 288.962 40.7034 289.021C40.7202 289.08 40.7249 289.142 40.7169 289.203C40.709 289.264 40.6887 289.322 40.6573 289.375C40.6003 289.455 40.519 289.515 40.4254 289.546C40.3318 289.576 40.2308 289.576 40.1373 289.545Z" fill="#0C1C33"/>
<path d="M29.0675 282.255C28.9748 282.232 28.8894 282.186 28.8194 282.121C28.7494 282.057 28.6972 281.975 28.6675 281.885C28.6509 281.827 28.6475 281.766 28.6574 281.707C28.6674 281.648 28.6905 281.592 28.7251 281.543C28.7596 281.494 28.8048 281.454 28.8571 281.424C28.9094 281.395 28.9677 281.378 29.0275 281.375C35.2775 280.525 41.0275 284.215 41.2975 284.375C41.3514 284.403 41.3988 284.443 41.4365 284.491C41.4742 284.539 41.5014 284.595 41.5165 284.654C41.5315 284.714 41.5341 284.775 41.5239 284.836C41.5138 284.896 41.4911 284.953 41.4575 285.005C41.3709 285.101 41.2517 285.163 41.1227 285.178C40.9937 285.192 40.8637 285.159 40.7575 285.085C40.7075 285.085 35.0975 281.465 29.2775 282.265C29.2076 282.276 29.136 282.273 29.0675 282.255Z" fill="#0C1C33"/>
<path d="M29.7572 278.255C29.6657 278.233 29.5811 278.189 29.5112 278.126C29.4413 278.063 29.3883 277.984 29.3572 277.895C29.3408 277.837 29.3374 277.776 29.3474 277.716C29.3573 277.656 29.3803 277.6 29.4147 277.55C29.4491 277.5 29.494 277.459 29.5464 277.429C29.5987 277.398 29.657 277.38 29.7172 277.375C34.1135 276.817 38.5622 277.883 42.2272 280.375C42.2794 280.407 42.3243 280.45 42.359 280.5C42.3937 280.551 42.4175 280.608 42.4288 280.668C42.4401 280.729 42.4387 280.79 42.4246 280.85C42.4106 280.91 42.3842 280.966 42.3472 281.015C42.2489 281.101 42.1227 281.148 41.9922 281.148C41.8617 281.148 41.7356 281.101 41.6372 281.015C38.2064 278.746 34.0816 277.768 29.9972 278.255C29.9182 278.272 29.8363 278.272 29.7572 278.255Z" fill="#0C1C33"/>
<path d="M30.5973 273.745C30.5066 273.722 30.4227 273.677 30.3531 273.614C30.2834 273.551 30.23 273.473 30.1974 273.385C30.181 273.327 30.1773 273.267 30.1867 273.208C30.1961 273.149 30.2182 273.093 30.2515 273.044C30.2849 272.994 30.3286 272.952 30.3797 272.921C30.4308 272.891 30.488 272.871 30.5474 272.865C36.9974 271.785 42.8874 275.865 43.1374 276.005C43.1903 276.036 43.2361 276.078 43.2718 276.128C43.3075 276.179 43.3323 276.236 43.3445 276.296C43.3568 276.356 43.3562 276.419 43.343 276.479C43.3297 276.539 43.3039 276.595 43.2674 276.645C43.1781 276.739 43.0577 276.796 42.9287 276.808C42.7998 276.819 42.6712 276.782 42.5673 276.705C42.5073 276.705 36.8174 272.755 30.8274 273.755C30.7508 273.767 30.6726 273.763 30.5973 273.745Z" fill="#0C1C33"/>
<path d="M41.8674 119.365C39.4374 136.225 37.9274 145.595 37.6274 167.775C37.5074 176.185 36.8974 185.515 36.5374 193.915C36.4274 196.295 36.6274 199.125 36.1474 201.465C35.2574 205.805 34.7174 208.465 33.7774 213.835C33.2074 217.055 32.8474 221.165 32.5074 224.415C32.0074 229.305 32.3274 234.295 31.1274 239.065C30.5696 240.826 30.1188 242.619 29.7774 244.435C29.631 245.434 29.6751 246.452 29.9074 247.435C30.1474 248.435 30.9074 249.095 31.2174 249.975C31.6274 251.265 31.1474 253.175 31.0974 254.545C31.0974 254.545 42.2474 259.785 49.3974 257.545C49.7674 256.335 49.9274 254.325 50.6674 253.345C51.1874 252.635 52.3874 252.265 53.0374 251.575C53.7209 250.849 54.2304 249.977 54.5274 249.025C54.8079 247.677 54.9784 246.31 55.0374 244.935C55.4374 241.705 57.0374 238.765 58.2174 235.725C61.3674 227.515 61.1574 218.725 63.2174 210.255C65.9974 198.865 67.3874 191.655 69.0074 183.535C70.6274 175.415 73.2774 199.955 73.2874 199.955C73.2938 201.443 73.17 202.928 72.9174 204.395C72.7074 207.295 72.6874 210.145 72.2074 213.005C71.1501 219.338 71.1163 225.801 72.1074 232.145C72.6374 235.485 73.1074 237.775 72.8174 241.145C72.6474 243.145 72.2374 244.865 72.9574 246.715C73.4874 248.055 74.2974 248.405 74.9574 249.645C75.2274 250.155 75.1074 254.135 75.4174 254.335C75.4174 254.335 86.8574 260.645 94.4174 254.935C94.5574 253.785 94.5274 251.485 95.0574 250.485C95.7062 249.96 96.2439 249.312 96.6388 248.577C97.0338 247.842 97.2781 247.035 97.3574 246.205C97.5574 244.345 97.0274 242.965 97.0774 241.095C97.2324 238.803 97.5229 236.522 97.9474 234.265C98.3901 231.02 98.624 227.75 98.6474 224.475C98.6974 221.625 98.3074 218.595 98.8474 215.825C99.6345 211.12 100.122 206.371 100.307 201.605C101.497 183.135 102.937 145.505 101.677 121.605L41.8674 119.365Z" fill="#455A64"/>
<path d="M51.0574 141.965C50.2474 161.265 42.2674 166.105 38.5674 167.405C38.5674 167.405 46.9474 159.135 51.0574 141.965Z" fill="#37474F"/>
<path d="M75.2072 150.675L68.3271 186.875C68.5471 185.765 68.7671 184.645 68.9971 183.515C70.6271 175.385 73.2771 199.935 73.2771 199.935L72.9272 183.935C72.8554 178.936 73.3689 173.945 74.4572 169.065L78.3171 153.535C83.1397 152.443 87.3347 149.488 89.9872 145.315C85.4372 149.365 75.2072 150.675 75.2072 150.675Z" fill="#0C1C33"/>
<path d="M30.8774 255.165C33.9474 257.755 43.0875 260.165 49.4875 258.165L50.9674 252.905C46.1374 254.325 36.3575 252.905 31.2075 249.505L30.8774 255.165Z" fill="#0C1C33"/>
<path d="M75.3975 254.925C77.4475 257.165 88.3975 258.925 94.3975 255.765L95.0375 250.465C90.4975 252.755 79.1775 252.315 74.9375 249.625L75.3975 254.925Z" fill="#0C1C33"/>
<path d="M37.6076 171.525C37.6076 171.525 36.2676 195.595 36.2676 197.325C36.2676 199.055 50.1076 203.175 50.4876 202.095C51.1176 200.275 51.1376 196.185 53.0276 176.545C42.3176 174.755 37.6076 171.525 37.6076 171.525Z" fill="#37474F"/>
<path d="M50.7575 183.255C50.3599 183.149 49.9489 183.102 49.5375 183.115C49.0575 183.115 48.5876 183.045 48.1076 182.985C45.9664 182.732 43.8741 182.166 41.8976 181.305C41.0376 180.945 40.2375 180.465 39.3775 180.105C39.2975 180.105 39.2776 180.235 39.3276 180.275C40.1589 180.881 41.0625 181.382 42.0176 181.765C42.8888 182.155 43.7839 182.489 44.6976 182.765C45.6812 183.047 46.6837 183.257 47.6976 183.395C48.1976 183.475 48.6976 183.525 49.1976 183.565C49.727 183.679 50.2763 183.662 50.7976 183.515C50.8189 183.499 50.8354 183.477 50.8455 183.452C50.8555 183.427 50.8586 183.4 50.8545 183.373C50.8504 183.347 50.8393 183.322 50.8222 183.301C50.8052 183.28 50.7828 183.264 50.7575 183.255Z" fill="#0C1C33"/>
<path d="M45.2172 179.715C45.0972 179.465 45.0072 179.305 44.7372 179.265C44.5043 179.231 44.2671 179.281 44.0672 179.405C43.9776 179.465 43.9013 179.544 43.8428 179.635C43.7844 179.726 43.745 179.828 43.7272 179.935C43.7 180.112 43.7264 180.293 43.8031 180.455C43.8797 180.617 44.003 180.753 44.1572 180.845C44.2978 180.928 44.4585 180.972 44.6222 180.972C44.7858 180.972 44.9465 180.928 45.0872 180.845C45.1688 180.781 45.2341 180.699 45.2776 180.605C45.3211 180.511 45.3415 180.408 45.3372 180.305C45.3435 180.101 45.3024 179.899 45.2172 179.715ZM44.9372 180.425C44.8569 180.514 44.7484 180.572 44.63 180.59C44.5115 180.609 44.3904 180.585 44.2872 180.525C43.9572 180.325 44.0472 179.685 44.4572 179.655C44.5862 179.649 44.7131 179.688 44.8172 179.765C44.9136 179.842 44.9789 179.951 45.0009 180.072C45.023 180.193 45.0003 180.319 44.9372 180.425Z" fill="#0C1C33"/>
<path d="M147.487 21.9747C147.487 21.9047 147.487 21.8447 147.487 21.7847C147.19 20.474 146.672 19.223 145.957 18.0847C145.421 16.9272 144.636 15.9027 143.657 15.0847C143.336 14.8784 143.029 14.6513 142.737 14.4047C142.441 14.0884 142.164 13.7545 141.907 13.4047C141.577 12.9523 141.155 12.5743 140.669 12.2952C140.184 12.0161 139.645 11.8422 139.087 11.7847C138.807 11.7847 138.517 11.7847 138.237 11.7847C137.307 11.7147 136.487 11.0147 135.567 11.0947C134.647 11.1747 134.107 11.7747 133.327 11.7047C132.721 11.5566 132.162 11.2612 131.697 10.8447C131.177 10.4947 130.437 10.2647 129.967 10.6747C129.772 10.8622 129.628 11.0962 129.547 11.3547C128.897 12.9647 130.197 14.3547 131.177 15.4747C131.754 16.0775 132.288 16.719 132.777 17.3947C133.299 18.5541 133.513 19.8286 133.397 21.0947C133.397 22.3147 133.297 23.5347 133.307 24.7647C133.307 25.7647 133.537 26.7647 133.547 27.7647C133.547 29.4747 133.407 30.3748 131.987 28.9648C130.567 27.5548 129.397 26.3748 127.927 25.9648C125.467 25.2348 124.687 26.6347 125.637 27.7247C126.977 29.2647 128.127 31.3047 130.007 34.0047C131.007 35.4047 131.817 36.7747 132.577 37.6847C135.147 40.9347 134.007 43.7647 133.147 47.9847C132.447 51.4347 128.857 63.0447 128.857 63.0447L107.857 56.8647C101.524 54.9369 95.0467 53.5191 88.4873 52.6247L93.1673 75.1348C93.1673 75.1348 113.817 80.5448 126.377 82.7448C142.457 85.5548 143.277 83.6347 144.627 72.5047C145.417 66.0947 146.167 49.7048 146.307 47.0748C146.433 44.492 146.768 41.9236 147.307 39.3947C147.97 36.3656 148.222 33.2611 148.057 30.1647C148.14 27.4226 147.949 24.679 147.487 21.9747Z" fill="#E69799"/>
<path d="M86.6372 52.4146C92.4282 52.7996 98.161 53.8053 103.737 55.4146C109.227 56.8846 119.957 60.1845 119.957 60.1845C122.197 64.5248 122.878 69.5022 121.887 74.2845C120.697 80.5245 117.887 81.7345 117.887 81.7345L91.9272 76.2545L86.6372 52.4146Z" fill="#37474F"/>
<path d="M135.127 30.4446C137.657 31.0946 141.277 34.7146 142.207 37.9446C142.517 33.8246 138.857 30.1246 135.127 30.4446Z" fill="#CF7578"/>
<path d="M122.757 20.3245C122.394 20.4477 122.065 20.655 121.798 20.9297C121.53 21.2043 121.331 21.5383 121.217 21.9045C120.972 22.7733 121.013 23.6983 121.336 24.5416C121.658 25.3849 122.244 26.1014 123.007 26.5845C123.332 26.8028 123.701 26.9481 124.088 27.0102C124.474 27.0724 124.87 27.0499 125.247 26.9445C125.477 26.8745 140.107 23.7945 140.327 23.7245C141.017 23.4945 141.327 21.7745 141.597 20.9545C141.843 20.0857 141.801 19.1608 141.479 18.3175C141.156 17.4742 140.57 16.7576 139.807 16.2745C139.047 15.8045 137.697 14.6045 137.007 14.8245C136.817 14.8945 123.007 20.2545 122.757 20.3245Z" fill="#0C1C33"/>
<path d="M128.347 17.4946C127.879 17.6462 127.454 17.9065 127.107 18.2541C126.759 18.6018 126.499 19.0269 126.347 19.4946C126.026 20.6187 126.077 21.8167 126.493 22.9091C126.91 24.0016 127.669 24.9298 128.657 25.5546C129.078 25.8335 129.554 26.0189 130.052 26.0982C130.551 26.1776 131.061 26.1491 131.547 26.0146C131.847 25.9246 145.417 23.3646 145.697 23.2746C146.587 22.9846 146.977 20.7546 147.337 19.6946C147.655 18.5704 147.602 17.3736 147.186 16.2819C146.77 15.1902 146.013 14.2618 145.027 13.6346C144.027 13.0246 142.297 11.4846 141.407 11.7646C141.127 11.9046 128.627 17.4046 128.347 17.4946Z" fill="#FAFAFA"/>
<path d="M141.647 12.155C142.503 12.4009 143.295 12.831 143.967 13.415C144.287 13.635 144.587 13.855 144.837 14.005C145.755 14.5809 146.461 15.4393 146.849 16.4511C147.236 17.4629 147.285 18.5733 146.987 19.615C146.907 19.865 146.817 20.175 146.727 20.505C146.487 21.365 146.087 22.805 145.597 22.965C145.367 23.025 141.677 23.725 138.427 24.355C133.687 25.255 131.597 25.655 131.427 25.705C131.168 25.786 130.898 25.8265 130.627 25.825C129.991 25.8113 129.371 25.6209 128.837 25.275C127.919 24.6992 127.213 23.8407 126.826 22.829C126.438 21.8172 126.389 20.7068 126.687 19.665C126.816 19.2455 127.043 18.8626 127.349 18.5479C127.655 18.2332 128.031 17.9957 128.447 17.855L134.707 15.135C137.797 13.775 141.297 12.245 141.507 12.135H141.627M141.627 11.755C141.551 11.7399 141.473 11.7399 141.397 11.755C141.107 11.845 128.607 17.345 128.327 17.435C127.859 17.5866 127.434 17.8469 127.087 18.1945C126.739 18.5422 126.479 18.9673 126.327 19.435C126.006 20.5591 126.057 21.7571 126.473 22.8495C126.89 23.942 127.649 24.8702 128.637 25.495C129.236 25.8729 129.929 26.0771 130.637 26.085C130.945 26.0887 131.252 26.0449 131.547 25.955C131.847 25.865 145.417 23.305 145.697 23.215C146.587 22.925 146.977 20.695 147.337 19.635C147.655 18.5108 147.602 17.314 147.186 16.2223C146.77 15.1306 146.013 14.2022 145.027 13.575C144.117 13.015 142.567 11.665 141.637 11.665L141.627 11.755Z" fill="#E0E0E0"/>
<path d="M141.957 22.6548C144.647 24.3048 147.617 23.3448 148.587 20.5048C149.016 18.9966 148.946 17.39 148.388 15.9248C147.829 14.4597 146.812 13.2144 145.487 12.3748C142.797 10.7248 139.827 11.6948 138.857 14.5348C138.427 16.0415 138.497 17.647 139.055 19.1109C139.614 20.5747 140.632 21.8181 141.957 22.6548Z" fill="#E0E0E0"/>
<path d="M140.267 23.4545C141.119 24.0208 142.115 24.3297 143.137 24.3445H143.387H144.917H144.807H144.597L144.157 24.2945C143.349 24.1517 142.577 23.8492 141.887 23.4045C141.531 23.1646 141.196 22.8935 140.887 22.5945C139.735 21.4827 138.932 20.0589 138.577 18.4977C138.221 16.9364 138.329 15.3054 138.887 13.8045C139.171 13.0539 139.61 12.3722 140.177 11.8045L140.287 11.6845L140.397 11.5945L140.627 11.4045L140.707 11.3345L139.387 12.2445L139.027 12.5045C138.344 13.0827 137.815 13.8214 137.487 14.6545C136.958 16.1002 136.88 17.6728 137.263 19.1639C137.647 20.655 138.475 21.9943 139.637 23.0045L139.947 23.2545L140.267 23.4545Z" fill="#0C1C33"/>
<path d="M128.057 22.6946C127.964 22.7457 127.887 22.8211 127.835 22.9128C127.782 23.0044 127.755 23.1088 127.757 23.2146C127.747 23.5104 127.805 23.8046 127.928 24.0737C128.052 24.3428 128.236 24.5794 128.467 24.7646C128.548 24.8314 128.645 24.8765 128.748 24.8957C128.851 24.915 128.957 24.9077 129.057 24.8746L129.627 24.6146C129.719 24.5603 129.795 24.4827 129.848 24.3897C129.901 24.2967 129.928 24.1915 129.927 24.0846C129.938 23.7901 129.88 23.4971 129.757 23.2295C129.633 22.9619 129.448 22.7272 129.217 22.5446C129.139 22.4732 129.042 22.4251 128.938 22.4057C128.834 22.3862 128.726 22.3962 128.627 22.4346L128.057 22.6946Z" fill="#37474F"/>
<path d="M128.467 24.7648C128.548 24.8316 128.645 24.8767 128.748 24.8959C128.851 24.9152 128.957 24.9079 129.057 24.8748C129.15 24.8246 129.228 24.7494 129.281 24.6575C129.334 24.5656 129.36 24.4608 129.357 24.3548C129.368 24.0589 129.31 23.7644 129.187 23.4952C129.063 23.226 128.879 22.9895 128.647 22.8048C128.568 22.7354 128.471 22.6885 128.367 22.6692C128.263 22.6498 128.156 22.6587 128.057 22.6948C127.964 22.7459 127.887 22.8213 127.835 22.913C127.782 23.0046 127.755 23.109 127.757 23.2148C127.747 23.5106 127.805 23.8048 127.928 24.0739C128.052 24.343 128.236 24.5796 128.467 24.7648Z" fill="#455A64"/>
<path d="M152.077 6.8747C151.265 7.13847 150.523 7.58212 149.907 8.17256C149.291 8.763 148.815 9.485 148.517 10.2847C147.847 12.0986 147.802 14.0842 148.389 15.9266C148.976 17.7689 150.161 19.3626 151.757 20.4547C152.449 20.9291 153.235 21.248 154.062 21.3896C154.889 21.5311 155.737 21.4919 156.547 21.2747C157.057 21.1247 160.297 20.0447 160.767 19.8947C161.579 19.6309 162.321 19.1873 162.937 18.5968C163.553 18.0064 164.029 17.2844 164.327 16.4847C165.003 14.6753 165.055 12.6921 164.475 10.8497C163.895 9.00731 162.717 7.41124 161.127 6.3147C160.432 5.83454 159.64 5.51309 158.807 5.37311C157.974 5.23313 157.121 5.27805 156.307 5.5047C155.757 5.6547 152.547 6.7247 152.077 6.8747Z" fill="#FAFAFA"/>
<path d="M141.937 23.5945C142.637 24.0763 143.431 24.4038 144.267 24.5555C145.104 24.7072 145.962 24.6796 146.787 24.4745L147.017 24.4145L152.637 22.8545C144.637 24.4645 140.847 11.4245 147.787 7.85449L142.397 9.93449C136.597 11.7445 137.167 20.7645 141.937 23.5945Z" fill="#2FACBB"/>
<path opacity="0.25" d="M141.937 23.5945C142.637 24.0763 143.431 24.4038 144.267 24.5555C145.104 24.7072 145.962 24.6796 146.787 24.4745L147.017 24.4145L152.637 22.8545C144.637 24.4645 140.847 11.4245 147.787 7.85449L142.397 9.93449C136.597 11.7445 137.167 20.7645 141.937 23.5945Z" fill="white"/>
<path d="M147.837 22.0046C148.544 22.5143 149.36 22.8527 150.22 22.9928C151.081 23.133 151.962 23.0711 152.794 22.8121C153.626 22.5531 154.387 22.1041 155.016 21.5006C155.644 20.897 156.124 20.1555 156.417 19.3346C157.107 17.493 157.161 15.4737 156.57 13.5981C155.979 11.7225 154.778 10.0985 153.157 8.98458C149.877 6.85458 146.517 6.79458 144.537 11.6246C143.86 13.4759 143.817 15.4997 144.414 17.3783C145.011 19.257 146.215 20.8842 147.837 22.0046Z" fill="#2FACBB"/>
<path d="M158.387 7.5948C159.884 8.63802 160.991 10.1495 161.534 11.8912C162.078 13.6329 162.026 15.5057 161.387 17.2148C161.03 18.1162 160.452 18.9138 159.707 19.5348C159.214 19.9422 158.647 20.2511 158.037 20.4448L153.347 21.9348H153.237C152.465 22.1439 151.656 22.1825 150.867 22.0478C150.077 21.9131 149.327 21.6084 148.667 21.1548C147.17 20.1144 146.062 18.6048 145.519 16.8644C144.976 15.124 145.028 13.2522 145.667 11.5448C146.142 10.2469 147.088 9.17567 148.317 8.5448C148.505 8.44409 148.703 8.36364 148.907 8.30481L149.137 8.23481L153.737 6.7748C154.524 6.55405 155.351 6.51314 156.156 6.65508C156.961 6.79702 157.723 7.11819 158.387 7.5948Z" fill="#2FACBB"/>
<path opacity="0.15" d="M158.387 7.5948C159.884 8.63802 160.991 10.1495 161.534 11.8912C162.078 13.6329 162.026 15.5057 161.387 17.2148C161.03 18.1162 160.452 18.9138 159.707 19.5348C159.214 19.9422 158.647 20.2511 158.037 20.4448L153.347 21.9348H153.237C152.465 22.1439 151.656 22.1825 150.867 22.0478C150.077 21.9131 149.327 21.6084 148.667 21.1548C147.17 20.1144 146.062 18.6048 145.519 16.8644C144.976 15.124 145.028 13.2522 145.667 11.5448C146.142 10.2469 147.088 9.17567 148.317 8.5448C148.505 8.44409 148.703 8.36364 148.907 8.30481L149.137 8.23481L153.737 6.7748C154.524 6.55405 155.351 6.51314 156.156 6.65508C156.961 6.79702 157.723 7.11819 158.387 7.5948Z" fill="white"/>
<path d="M164.187 8.40457C163.598 7.40383 162.808 6.53567 161.867 5.85456L161.667 5.73457C160.889 5.13346 159.977 4.72872 159.009 4.55465C158.042 4.38058 157.046 4.4423 156.107 4.73457H156.057L151.977 6.25457C151.093 6.55116 150.278 7.0228 149.581 7.64132C148.883 8.25984 148.317 9.01257 147.917 9.85457C147.089 11.7348 146.935 13.8432 147.482 15.8237C148.028 17.8043 149.242 19.5354 150.917 20.7246C151.65 21.2786 152.495 21.6658 153.393 21.8593C154.292 22.0527 155.221 22.0477 156.117 21.8446C156.637 21.7146 159.747 20.8446 160.647 20.5946C161.573 20.3599 162.431 19.9147 163.156 19.2938C163.881 18.6728 164.453 17.8928 164.827 17.0146C165.413 15.632 165.66 14.1296 165.549 12.6321C165.438 11.1347 164.971 9.68537 164.187 8.40457Z" fill="#2FACBB"/>
<path opacity="0.25" d="M164.187 8.40457C163.598 7.40383 162.808 6.53567 161.867 5.85456L161.667 5.73457C160.889 5.13346 159.977 4.72872 159.009 4.55465C158.042 4.38058 157.046 4.4423 156.107 4.73457H156.057L151.977 6.25457C151.093 6.55116 150.278 7.0228 149.581 7.64132C148.883 8.25984 148.317 9.01257 147.917 9.85457C147.089 11.7348 146.935 13.8432 147.482 15.8237C148.028 17.8043 149.242 19.5354 150.917 20.7246C151.65 21.2786 152.495 21.6658 153.393 21.8593C154.292 22.0527 155.221 22.0477 156.117 21.8446C156.637 21.7146 159.747 20.8446 160.647 20.5946C161.573 20.3599 162.431 19.9147 163.156 19.2938C163.881 18.6728 164.453 17.8928 164.827 17.0146C165.413 15.632 165.66 14.1296 165.549 12.6321C165.438 11.1347 164.971 9.68537 164.187 8.40457Z" fill="white"/>
<path opacity="0.2" d="M122.517 26.1945C122.677 26.3441 122.851 26.4781 123.037 26.5945C123.362 26.8084 123.73 26.9504 124.114 27.0107C124.499 27.0711 124.892 27.0485 125.267 26.9445L129.157 25.8545C129.904 26.2169 130.758 26.2916 131.557 26.0645C131.657 26.0645 141.657 24.1145 141.657 24.1145C141.657 24.1145 142.177 24.2545 142.317 24.2645C142.587 24.3158 142.862 24.3426 143.137 24.3445H143.467C144.535 24.7192 145.691 24.768 146.787 24.4845L147.017 24.4245L152.637 22.8645C153.264 22.7049 153.855 22.4265 154.377 22.0444C154.981 22.0856 155.588 22.035 156.177 21.8945C156.697 21.7645 159.807 20.8945 160.707 20.6445C161.362 20.4906 161.985 20.2232 162.547 19.8545C162.72 19.7366 162.887 19.6098 163.047 19.4745H163.097L163.547 19.0645L163.617 18.9845C163.747 18.8445 163.867 18.6944 163.987 18.5444L164.097 18.4245C164.208 18.2698 164.312 18.1096 164.407 17.9445L164.507 17.8045C164.639 17.5809 164.759 17.3505 164.867 17.1145C164.967 16.9045 165.047 16.6845 165.127 16.4645L165.187 16.2745C165.248 16.1111 165.298 15.9441 165.337 15.7745C165.357 15.7154 165.374 15.6553 165.387 15.5945C165.437 15.3745 165.487 15.1545 165.517 14.9345C165.522 14.8645 165.522 14.7944 165.517 14.7245C165.517 14.5745 165.517 14.4145 165.577 14.2545C165.637 14.0945 165.577 14.1345 165.577 14.0645L149.057 19.0645L148.487 18.3245L146.487 19.0145L145.487 19.6145L145.797 20.0645L139.977 21.8145L122.517 26.1945Z" fill="black"/>
<path d="M155.557 19.5046C156.288 20.0841 157.144 20.4852 158.056 20.6763C158.969 20.8673 159.914 20.843 160.816 20.6052C161.717 20.3674 162.551 19.9226 163.251 19.3063C163.951 18.69 164.498 17.919 164.847 17.0546C165.665 15.1185 165.814 12.9651 165.271 10.9349C164.727 8.90465 163.523 7.11347 161.847 5.84459C158.277 3.30459 154.457 4.18459 152.557 8.30459C151.739 10.2389 151.589 12.3912 152.133 14.4201C152.676 16.4491 153.881 18.2385 155.557 19.5046Z" fill="#2FACBB"/>
<path opacity="0.2" d="M161.917 19.0946C160.047 20.4946 157.917 19.3046 157.147 18.7246C155.578 17.506 154.45 15.8077 153.936 13.8887C153.421 11.9696 153.548 9.93487 154.297 8.09464C154.654 7.30938 155.196 6.62286 155.877 6.09464C157.747 4.70464 159.827 5.89465 160.637 6.46465C162.21 7.68092 163.34 9.37859 163.857 11.2982C164.373 13.2177 164.247 15.2536 163.497 17.0946C163.141 17.8799 162.599 18.5664 161.917 19.0946Z" fill="black"/>
<path d="M158.447 7.00439C157.707 6.47341 156.849 6.13023 155.947 6.00439L155.877 6.0544C155.196 6.58261 154.654 7.26913 154.297 8.0544C153.548 9.89463 153.421 11.9293 153.936 13.8484C154.45 15.7675 155.578 17.4657 157.147 18.6844C157.885 19.2193 158.744 19.5629 159.647 19.6844H159.717C160.405 19.1421 160.948 18.4378 161.297 17.6344C162.046 15.7942 162.173 13.7595 161.659 11.8404C161.144 9.92131 160.017 8.22305 158.447 7.00439Z" fill="#2FACBB"/>
<path opacity="0.6" d="M158.447 7.00439C157.707 6.47341 156.849 6.13023 155.947 6.00439L155.877 6.0544C155.196 6.58261 154.654 7.26913 154.297 8.0544C153.548 9.89463 153.421 11.9293 153.936 13.8484C154.45 15.7675 155.578 17.4657 157.147 18.6844C157.885 19.2193 158.744 19.5629 159.647 19.6844H159.717C160.405 19.1421 160.948 18.4378 161.297 17.6344C162.046 15.7942 162.173 13.7595 161.659 11.8404C161.144 9.92131 160.017 8.22305 158.447 7.00439Z" fill="white"/>
<path opacity="0.1" d="M154.237 8.25463C153.528 10.0834 153.429 12.0921 153.953 13.9821C154.477 15.8721 155.598 17.5424 157.147 18.7446C157.823 18.6267 158.459 18.3404 158.996 17.9123C159.532 17.4841 159.952 16.9278 160.217 16.2946C160.762 15.0028 160.862 13.5663 160.499 12.2118C160.137 10.8573 159.334 9.66203 158.217 8.81463C157.656 8.3901 156.997 8.11583 156.3 8.01782C155.603 7.91982 154.893 8.00133 154.237 8.25463Z" fill="#2FACBB"/>
<path opacity="0.2" d="M153.607 11.2544C153.584 13.1047 154.09 14.923 155.067 16.4944C155.384 16.6862 155.739 16.8067 156.108 16.8474C156.476 16.888 156.849 16.848 157.2 16.73C157.551 16.6119 157.872 16.4188 158.141 16.164C158.41 15.9091 158.62 15.5987 158.757 15.2544C159.109 14.422 159.174 13.4959 158.94 12.6229C158.706 11.7498 158.188 10.9796 157.467 10.4344C157.171 10.2019 156.828 10.0372 156.461 9.95195C156.094 9.86675 155.714 9.86313 155.345 9.94135C154.977 10.0196 154.631 10.1777 154.33 10.4046C154.03 10.6315 153.783 10.9216 153.607 11.2544Z" fill="#2FACBB"/>
<path opacity="0.6" d="M154.757 10.2545C154.637 8.25448 156.027 6.87448 156.807 6.95448C157.587 7.03448 162.347 10.3845 160.867 16.3945C160.867 16.3945 161.157 12.5345 159.117 9.89448C157.077 7.25448 155.117 8.33448 154.757 10.2545Z" fill="white"/>
<path d="M108.757 25.0549C108.394 25.178 108.065 25.3854 107.798 25.66C107.53 25.9346 107.331 26.2687 107.217 26.6349C106.972 27.5041 107.012 28.4294 107.333 29.2739C107.653 30.1185 108.237 30.8375 108.997 31.3249C109.324 31.5391 109.693 31.6811 110.08 31.7414C110.466 31.8018 110.861 31.7791 111.237 31.6749C111.467 31.6049 126.107 28.5249 126.317 28.4549C127.007 28.2349 127.317 26.5049 127.587 25.6849C127.832 24.8171 127.792 23.8934 127.471 23.0506C127.15 22.2078 126.567 21.4905 125.807 21.0049C125.037 20.5349 123.687 19.3449 123.007 19.5549C122.757 19.6249 108.977 24.9849 108.757 25.0549Z" fill="#0C1C33"/>
<path d="M114.318 22.255C113.845 22.4129 113.417 22.6813 113.069 23.0378C112.721 23.3944 112.464 23.8288 112.318 24.305C111.999 25.4292 112.052 26.626 112.468 27.7177C112.885 28.8095 113.642 29.7378 114.627 30.365C115.048 30.6439 115.524 30.8292 116.023 30.9086C116.521 30.9879 117.031 30.9594 117.518 30.825C117.818 30.735 131.398 28.175 131.668 28.085C132.568 27.795 132.948 25.565 133.318 24.505C133.635 23.3798 133.58 22.1822 133.162 21.0903C132.744 19.9985 131.985 19.0708 130.997 18.445C129.997 17.845 128.267 16.295 127.377 16.575C127.097 16.635 114.598 22.135 114.318 22.255Z" fill="#FAFAFA"/>
<path d="M127.617 16.8848C128.473 17.1307 129.265 17.5608 129.937 18.1448C130.257 18.3648 130.557 18.5848 130.817 18.7348C131.73 19.3181 132.432 20.1789 132.819 21.1905C133.206 22.2022 133.258 23.3113 132.967 24.3548C132.877 24.5948 132.797 24.9048 132.707 25.2348C132.467 26.0948 132.067 27.5348 131.577 27.6948C131.347 27.7548 127.658 28.4548 124.398 29.0848C119.658 29.9848 117.568 30.3848 117.398 30.4348C117.142 30.5151 116.875 30.5556 116.607 30.5548C115.973 30.54 115.354 30.3533 114.817 30.0148C113.9 29.439 113.194 28.5805 112.806 27.5687C112.418 26.557 112.37 25.4466 112.667 24.4048C112.793 23.9837 113.017 23.5988 113.321 23.2821C113.626 22.9655 114.002 22.7264 114.417 22.5848C114.557 22.5348 116.417 21.7148 120.687 19.8648C123.767 18.5148 127.267 16.9848 127.487 16.8648H127.597M127.597 16.4848C127.521 16.4744 127.444 16.4744 127.367 16.4848C127.077 16.5748 114.577 22.0748 114.297 22.1648C113.825 22.3227 113.397 22.5911 113.049 22.9476C112.701 23.3042 112.444 23.7386 112.297 24.2148C111.979 25.339 112.032 26.5358 112.448 27.6276C112.865 28.7193 113.622 29.6477 114.607 30.2748C115.206 30.6552 115.898 30.8629 116.607 30.8748C116.913 30.8742 117.216 30.827 117.507 30.7348C117.807 30.6448 131.387 28.0848 131.657 27.9948C132.557 27.7048 132.937 25.4748 133.307 24.4148C133.625 23.2896 133.57 22.092 133.152 21.0002C132.734 19.9083 131.975 18.9806 130.987 18.3548C130.077 17.7948 128.537 16.4448 127.597 16.4448V16.4848Z" fill="#E0E0E0"/>
<path d="M127.928 27.3948C130.618 29.0348 133.588 28.0748 134.568 25.2348C134.993 23.7254 134.92 22.1192 134.359 20.6547C133.799 19.1901 132.782 17.9452 131.458 17.1048C128.768 15.4548 125.808 16.4248 124.828 19.2648C124.4 20.7731 124.471 22.3791 125.029 23.8439C125.588 25.3087 126.605 26.5541 127.928 27.3948Z" fill="#E0E0E0"/>
<path d="M126.247 28.185C127.098 28.7523 128.095 29.0614 129.117 29.075H129.357H130.887H130.757H130.547H130.107C129.302 28.9321 128.534 28.6294 127.847 28.185C127.491 27.9482 127.156 27.6805 126.847 27.385C125.697 26.2695 124.896 24.8441 124.541 23.2818C124.186 21.7196 124.292 20.0879 124.847 18.585C125.135 17.8365 125.574 17.1555 126.137 16.585L126.257 16.475L126.357 16.375L126.587 16.185L126.677 16.125L125.347 17.025L124.997 17.285C124.308 17.8643 123.775 18.6069 123.447 19.445C122.92 20.8902 122.843 22.4617 123.229 23.9512C123.615 25.4406 124.444 26.7776 125.607 27.785L125.907 28.035C126.018 28.0902 126.132 28.1403 126.247 28.185Z" fill="#0C1C33"/>
<path d="M114.028 27.425C113.936 27.4777 113.861 27.5535 113.808 27.6448C113.755 27.7361 113.727 27.8396 113.728 27.945C113.716 28.242 113.775 28.5375 113.9 28.8071C114.025 29.0766 114.213 29.3125 114.448 29.495C114.527 29.5645 114.624 29.6113 114.728 29.6306C114.831 29.65 114.938 29.6411 115.038 29.605L115.608 29.345C115.699 29.291 115.774 29.2132 115.826 29.1199C115.877 29.0266 115.901 28.9213 115.898 28.815C115.91 28.5204 115.852 28.2272 115.728 27.9594C115.605 27.6916 115.419 27.4571 115.188 27.275C115.108 27.2056 115.011 27.1587 114.908 27.1394C114.804 27.12 114.697 27.1289 114.598 27.165L114.028 27.425Z" fill="#37474F"/>
<path d="M114.448 29.4947C114.523 29.5716 114.619 29.6233 114.725 29.6428C114.831 29.6623 114.94 29.6487 115.037 29.6038C115.135 29.5589 115.216 29.4849 115.27 29.3919C115.324 29.299 115.347 29.1917 115.338 29.0847C115.348 28.788 115.288 28.493 115.163 28.2237C115.038 27.9544 114.851 27.7184 114.618 27.5347C114.537 27.4679 114.44 27.4228 114.337 27.4036C114.234 27.3843 114.127 27.3916 114.028 27.4247C113.936 27.4774 113.861 27.5532 113.808 27.6445C113.755 27.7358 113.727 27.8393 113.728 27.9447C113.716 28.2417 113.775 28.5372 113.9 28.8068C114.025 29.0763 114.213 29.3122 114.448 29.4947Z" fill="#455A64"/>
<path d="M138.047 11.6046C137.237 11.8703 136.496 12.3146 135.88 12.9048C135.264 13.495 134.788 14.216 134.487 15.0146C133.815 16.8253 133.765 18.8086 134.346 20.6507C134.928 22.4928 136.107 24.0883 137.697 25.1846C138.386 25.6612 139.171 25.9816 139.997 26.1232C140.822 26.2648 141.669 26.2244 142.477 26.0046C142.987 25.8546 146.237 24.7746 146.707 24.6246C147.518 24.3589 148.259 23.9145 148.875 23.3244C149.491 22.7342 149.967 22.0132 150.267 21.2146C150.94 19.4039 150.99 17.4205 150.409 15.5785C149.827 13.7364 148.648 12.1409 147.057 11.0446C146.363 10.5638 145.571 10.242 144.738 10.102C143.905 9.96197 143.051 10.0073 142.237 10.2346C141.757 10.3846 138.517 11.4546 138.047 11.6046Z" fill="#FAFAFA"/>
<path d="M127.907 28.3248C128.603 28.815 129.396 29.1515 130.232 29.3119C131.068 29.4722 131.929 29.4528 132.757 29.2548L132.987 29.1948L138.617 27.6348C130.617 29.2448 126.817 16.2048 133.757 12.6348L128.367 14.7248C122.577 16.4848 123.137 25.4948 127.907 28.3248Z" fill="#2FACBB"/>
<path opacity="0.25" d="M127.907 28.3248C128.603 28.815 129.396 29.1515 130.232 29.3119C131.068 29.4722 131.929 29.4528 132.757 29.2548L132.987 29.1948L138.617 27.6348C130.617 29.2448 126.817 16.2048 133.757 12.6348L128.367 14.7248C122.577 16.4848 123.137 25.4948 127.907 28.3248Z" fill="white"/>
<path d="M133.808 26.7349C134.515 27.2446 135.332 27.5828 136.193 27.723C137.054 27.8631 137.936 27.8013 138.768 27.5424C139.601 27.2835 140.363 26.8346 140.993 26.2311C141.622 25.6276 142.103 24.886 142.398 24.0649C143.082 22.2228 143.133 20.2052 142.542 18.3308C141.952 16.4565 140.754 14.8323 139.138 13.7149C135.858 11.5849 132.488 11.5249 130.508 16.3649C129.831 18.2148 129.788 20.2369 130.385 22.1138C130.983 23.9907 132.186 25.6162 133.808 26.7349Z" fill="#2FACBB"/>
<path d="M144.357 12.3248C145.855 13.3668 146.964 14.8783 147.507 16.6203C148.05 18.3624 147.998 20.2359 147.357 21.9448C147.017 22.8322 146.469 23.6246 145.757 24.2548C145.263 24.6586 144.696 24.9641 144.087 25.1547L139.397 26.6448H139.277C139.051 26.7068 138.82 26.7535 138.587 26.7848C137.228 26.9668 135.849 26.6391 134.717 25.8648C133.219 24.8256 132.11 23.3159 131.566 21.5751C131.023 19.8343 131.076 17.962 131.717 16.2548C132.198 14.9609 133.143 13.8918 134.367 13.2548C134.567 13.1648 134.757 13.0848 134.957 13.0148L135.187 12.9448L139.797 11.4848C140.572 11.2795 141.383 11.2483 142.172 11.3936C142.96 11.5388 143.706 11.8568 144.357 12.3248Z" fill="#2FACBB"/>
<path opacity="0.15" d="M144.357 12.3248C145.855 13.3668 146.964 14.8783 147.507 16.6203C148.05 18.3624 147.998 20.2359 147.357 21.9448C147.017 22.8322 146.469 23.6246 145.757 24.2548C145.263 24.6586 144.696 24.9641 144.087 25.1547L139.397 26.6448H139.277C139.051 26.7068 138.82 26.7535 138.587 26.7848C137.228 26.9668 135.849 26.6391 134.717 25.8648C133.219 24.8256 132.11 23.3159 131.566 21.5751C131.023 19.8343 131.076 17.962 131.717 16.2548C132.198 14.9609 133.143 13.8918 134.367 13.2548C134.567 13.1648 134.757 13.0848 134.957 13.0148L135.187 12.9448L139.797 11.4848C140.572 11.2795 141.383 11.2483 142.172 11.3936C142.96 11.5388 143.706 11.8568 144.357 12.3248Z" fill="white"/>
<path d="M150.157 13.135C149.574 12.1357 148.787 11.2703 147.847 10.595C147.777 10.595 147.707 10.515 147.647 10.465C146.867 9.86449 145.953 9.46025 144.984 9.28623C144.015 9.11222 143.018 9.17351 142.077 9.46495H142.027L137.947 11.025C137.067 11.3257 136.255 11.799 135.56 12.4172C134.864 13.0353 134.299 13.7859 133.897 14.625C133.071 16.5055 132.918 18.6133 133.464 20.5934C134.011 22.5734 135.223 24.3045 136.897 25.495C137.629 26.0502 138.475 26.4382 139.373 26.6317C140.271 26.8252 141.201 26.8195 142.097 26.615C142.617 26.495 145.737 25.615 146.627 25.365C147.555 25.1324 148.416 24.6881 149.143 24.067C149.87 23.4459 150.443 22.6648 150.817 21.785C151.406 20.3952 151.653 18.8847 151.538 17.3797C151.424 15.8748 150.95 14.4193 150.157 13.135Z" fill="#2FACBB"/>
<path opacity="0.25" d="M150.157 13.135C149.574 12.1357 148.787 11.2703 147.847 10.595C147.777 10.595 147.707 10.515 147.647 10.465C146.867 9.86449 145.953 9.46025 144.984 9.28623C144.015 9.11222 143.018 9.17351 142.077 9.46495H142.027L137.947 11.025C137.067 11.3257 136.255 11.799 135.56 12.4172C134.864 13.0353 134.299 13.7859 133.897 14.625C133.071 16.5055 132.918 18.6133 133.464 20.5934C134.011 22.5734 135.223 24.3045 136.897 25.495C137.629 26.0502 138.475 26.4382 139.373 26.6317C140.271 26.8252 141.201 26.8195 142.097 26.615C142.617 26.495 145.737 25.615 146.627 25.365C147.555 25.1324 148.416 24.6881 149.143 24.067C149.87 23.4459 150.443 22.6648 150.817 21.785C151.406 20.3952 151.653 18.8847 151.538 17.3797C151.424 15.8748 150.95 14.4193 150.157 13.135Z" fill="white"/>
<path opacity="0.2" d="M108.487 30.9247C108.651 31.0697 108.825 31.2034 109.007 31.3247C109.335 31.5377 109.703 31.6797 110.089 31.7417C110.475 31.8037 110.869 31.7843 111.247 31.6847L115.137 30.5947C115.886 30.9538 116.74 31.025 117.537 30.7947C117.637 30.7947 127.637 28.8447 127.637 28.8447C127.851 28.9055 128.068 28.9556 128.287 28.9947C128.561 29.0461 128.839 29.0728 129.117 29.0747H129.447C130.508 29.4631 131.661 29.5258 132.757 29.2547L132.987 29.1947L138.617 27.6347C139.242 27.4632 139.831 27.1822 140.357 26.8047C140.958 26.8506 141.562 26.8 142.147 26.6547C142.667 26.5247 145.777 25.6547 146.677 25.4047C147.333 25.2551 147.957 24.9874 148.517 24.6147C148.694 24.4969 148.864 24.3701 149.027 24.2347C149.044 24.2305 149.061 24.2305 149.077 24.2347L149.517 23.8247C149.541 23.7956 149.568 23.7688 149.597 23.7447C149.728 23.6048 149.852 23.4579 149.967 23.3047L150.067 23.1847C150.177 23.0347 150.277 22.8747 150.387 22.7047L150.477 22.5647C150.613 22.3433 150.733 22.1127 150.837 21.8747C150.937 21.6668 151.024 21.4531 151.097 21.2347C151.125 21.1697 151.148 21.1028 151.167 21.0347C151.217 20.8747 151.277 20.7047 151.317 20.5347C151.313 20.4748 151.313 20.4146 151.317 20.3547C151.317 20.1347 151.407 19.9147 151.437 19.6947V19.4847C151.437 19.3347 151.437 19.1747 151.487 19.0147C151.537 18.8547 151.487 18.8947 151.487 18.8247L134.967 23.8247L134.397 23.0847L132.397 23.7747L131.397 24.3747L131.707 24.8347L125.897 26.5847L108.487 30.9247Z" fill="black"/>
<path d="M141.527 24.2548C142.259 24.8361 143.116 25.2385 144.03 25.43C144.945 25.6215 145.891 25.5968 146.795 25.3578C147.698 25.1189 148.533 24.6724 149.233 24.0538C149.933 23.4352 150.479 22.6617 150.828 21.7948C151.643 19.8585 151.791 17.7056 151.248 15.6758C150.705 13.646 149.502 11.8548 147.828 10.5848C144.248 8.04482 140.427 8.92482 138.527 13.0448C137.712 14.9812 137.564 17.134 138.107 19.1638C138.65 21.1937 139.853 22.9848 141.527 24.2548Z" fill="#2FACBB"/>
<path opacity="0.2" d="M147.887 23.8347C146.017 25.2247 143.937 24.0347 143.127 23.4547C141.555 22.2382 140.425 20.5399 139.911 18.62C139.396 16.7002 139.525 14.6645 140.277 12.8247C140.633 12.039 141.175 11.3524 141.857 10.8247C143.717 9.43472 145.807 10.6247 146.617 11.2047C148.189 12.4213 149.319 14.1195 149.834 16.0394C150.348 17.9593 150.22 19.995 149.467 21.8347C149.112 22.6348 148.571 23.3379 147.887 23.8847V23.8347Z" fill="black"/>
<path d="M144.417 11.7349C143.681 11.1965 142.821 10.8526 141.917 10.7349H141.857C141.175 11.2625 140.633 11.9492 140.277 12.7349C139.525 14.5746 139.396 16.6103 139.911 18.5302C140.425 20.4501 141.555 22.1483 143.127 23.3649C143.861 23.9074 144.722 24.2519 145.627 24.3649L145.687 24.3149C146.371 23.7893 146.914 23.1021 147.267 22.3149C148.008 20.4813 148.13 18.4564 147.615 16.5472C147.101 14.6379 145.978 12.9484 144.417 11.7349Z" fill="#2FACBB"/>
<path opacity="0.6" d="M144.417 11.7349C143.681 11.1965 142.821 10.8526 141.917 10.7349H141.857C141.175 11.2625 140.633 11.9492 140.277 12.7349C139.525 14.5746 139.396 16.6103 139.911 18.5302C140.425 20.4501 141.555 22.1483 143.127 23.3649C143.861 23.9074 144.722 24.2519 145.627 24.3649L145.687 24.3149C146.371 23.7893 146.914 23.1021 147.267 22.3149C148.008 20.4813 148.13 18.4564 147.615 16.5472C147.101 14.6379 145.978 12.9484 144.417 11.7349Z" fill="white"/>
<path opacity="0.1" d="M140.208 12.9647C139.501 14.7947 139.404 16.8036 139.93 18.6933C140.456 20.583 141.577 22.2527 143.128 23.4547C143.803 23.335 144.438 23.0481 144.974 22.6202C145.51 22.1922 145.931 21.6369 146.198 21.0047C146.744 19.7132 146.845 18.2761 146.482 16.9212C146.12 15.5663 145.316 14.371 144.198 13.5247C143.636 13.0984 142.974 12.8232 142.275 12.7251C141.577 12.6271 140.865 12.7096 140.208 12.9647Z" fill="#2FACBB"/>
<path opacity="0.2" d="M139.587 15.9746C139.556 17.8245 140.059 19.6442 141.037 21.2146C141.356 21.4066 141.712 21.5271 142.082 21.5679C142.452 21.6087 142.826 21.5688 143.179 21.4509C143.531 21.333 143.854 21.1399 144.125 20.885C144.396 20.6302 144.608 20.3195 144.747 19.9746C145.097 19.1435 145.16 18.2195 144.926 17.3486C144.693 16.4777 144.176 15.7093 143.457 15.1646C143.162 14.9298 142.818 14.763 142.451 14.6761C142.084 14.5891 141.702 14.5841 141.332 14.6614C140.963 14.7388 140.615 14.8965 140.313 15.1235C140.012 15.3504 139.764 15.641 139.587 15.9746Z" fill="#2FACBB"/>
<path opacity="0.6" d="M140.757 14.9649C140.637 12.9649 142.037 11.5849 142.817 11.6549C143.597 11.7249 148.347 15.0849 146.867 21.0949C146.867 21.0949 147.157 17.2349 145.117 14.5949C143.077 11.9549 141.097 13.0649 140.757 14.9649Z" fill="white"/>
<path d="M131.947 29.0347C130.607 27.7047 129.357 26.4447 127.887 26.0347C125.427 25.3047 124.647 26.7047 125.597 27.7947C126.937 29.3347 128.087 31.3747 129.967 34.0747C130.967 35.4747 131.777 36.8447 132.537 37.7547L132.887 29.7547C132.519 29.5959 132.197 29.3485 131.947 29.0347Z" fill="#E69799"/>
<path d="M128.817 63.0946C128.817 63.0946 133.357 69.7046 133.127 69.6246C132.897 69.5446 125.827 62.2246 125.827 62.2246L128.817 63.0946Z" fill="#CF7578"/>
<path d="M60.027 51.7346C60.027 51.7346 47.357 54.0246 44.437 55.2246C44.437 55.2246 36.967 63.2946 40.437 87.9146C40.927 91.3846 40.967 101.755 41.277 110.165C41.507 116.165 40.277 124.775 39.697 131.335C39.697 131.335 59.277 141.515 82.267 137.965C100.327 135.165 102.137 126.715 102.137 126.715C102.137 126.715 102.067 95.7146 100.567 81.9646C98.567 63.8546 90.387 54.9646 82.937 51.6746L75.577 51.2046L60.027 51.7346Z" fill="#F0F0F0"/>
<path d="M93.1569 69.8447C93.7849 73.8124 94.0493 77.829 93.9469 81.8447C84.8469 84.7247 73.7969 86.7747 63.2169 85.9747C63.3069 81.4947 63.1069 77.7647 62.8169 73.5247C70.2569 74.0047 83.7569 72.8247 93.1569 69.8447Z" fill="#E0E0E0"/>
<path d="M82.9673 51.6748C94.3173 58.7748 99.8173 75.2348 100.867 84.8448C100.867 61.2348 89.0973 52.4748 89.0973 52.4748L82.9673 51.6748Z" fill="#2FACBB"/>
<path d="M53.3569 13.7046C53.3569 13.7046 50.3569 14.3746 48.9569 18.3346C48.2269 20.3346 48.0369 25.0546 52.0069 34.2846C53.5298 37.8911 55.6009 41.2406 58.1469 44.2146C58.9125 45.1917 60.0275 45.8334 61.2569 46.0046L60.0769 38.6246L59.0769 32.2546C59.0769 32.2546 63.1769 30.4746 63.4869 24.4646C63.7369 19.6246 61.6069 17.9646 61.6069 17.9646L53.3569 13.7046Z" fill="#0C1C33"/>
<path d="M49.0971 17.6848C47.2771 10.4448 60.1971 -1.15519 69.0971 3.43481C71.6271 -0.875193 78.6771 0.324807 79.6971 4.43481C82.0571 3.01481 87.2371 7.75481 86.3671 10.9648C89.2671 17.6648 86.1571 21.4448 82.8571 21.6448C74.7871 22.1548 66.1271 22.3948 58.0271 23.4848L49.0971 17.6848Z" fill="#0C1C33"/>
<path d="M82.7571 11.0247C84.5671 12.4547 87.0071 16.3447 88.6171 29.5047C89.7071 38.4447 87.8571 42.5947 84.8071 44.4347C82.8071 45.6447 81.1171 46.1447 77.3871 46.4347L77.8471 51.8147C86.0371 58.5647 64.4371 62.6147 58.5571 53.4047L57.5571 38.6647C57.0871 39.8047 54.3371 40.7547 52.0971 38.8147C48.5371 35.8147 48.7771 30.8947 51.0971 28.8847C53.4171 26.8747 57.0171 26.9547 58.6371 30.4147C61.5071 31.1647 63.2271 27.0547 61.4871 16.3147C70.6671 15.2547 75.3471 8.25469 82.7571 11.0247Z" fill="#E69799"/>
<path d="M77.4171 46.4447C68.2571 46.7347 62.6971 43.1947 61.3271 39.8447C61.3271 39.8447 61.3271 45.0847 67.9371 47.4847C71.033 48.5706 74.3107 49.0427 77.5871 48.8747L77.4171 46.4447Z" fill="#CF7578"/>
<path d="M79.4572 35.1747L73.3072 33.8447C73.2 34.2461 73.1749 34.665 73.2334 35.0763C73.2918 35.4877 73.4326 35.883 73.6473 36.2386C73.862 36.5943 74.1462 36.903 74.483 37.1463C74.8197 37.3897 75.2021 37.5626 75.6072 37.6547C76.4451 37.8199 77.3144 37.6538 78.0324 37.1913C78.7504 36.7288 79.2611 36.006 79.4572 35.1747Z" fill="#CF7578"/>
<path d="M76.9671 37.6346C76.5194 37.7349 76.0549 37.7349 75.6071 37.6346C75.0458 37.5145 74.5307 37.2358 74.123 36.8316C73.7154 36.4275 73.4322 35.9149 73.3071 35.3546C74.081 35.2919 74.8546 35.4796 75.5137 35.8902C76.1727 36.3007 76.6823 36.9123 76.9671 37.6346Z" fill="#F69C9C"/>
<path d="M68.6572 24.7847C68.7193 25.1161 68.8779 25.4217 69.1133 25.6632C69.3486 25.9046 69.65 26.0712 69.9796 26.1418C70.3093 26.2125 70.6525 26.1841 70.9661 26.0602C71.2797 25.9363 71.5497 25.7225 71.7421 25.4457C71.9345 25.1688 72.0408 24.8412 72.0476 24.5041C72.0544 24.1671 71.9613 23.8355 71.7802 23.5511C71.5991 23.2667 71.3379 23.0423 71.0296 22.9059C70.7212 22.7695 70.3794 22.7273 70.0472 22.7847C69.8239 22.8232 69.6104 22.9057 69.4193 23.0275C69.2281 23.1492 69.0631 23.3078 68.9337 23.4939C68.8044 23.68 68.7134 23.8899 68.6659 24.1115C68.6184 24.3331 68.6154 24.5619 68.6572 24.7847Z" fill="#0C1C33"/>
<path d="M80.687 22.7847C80.749 23.1161 80.9077 23.4217 81.143 23.6632C81.3783 23.9046 81.6798 24.0712 82.0095 24.1418C82.3391 24.2125 82.6823 24.1841 82.9959 24.0602C83.3095 23.9363 83.5795 23.7225 83.7719 23.4457C83.9643 23.1688 84.0706 22.8412 84.0774 22.5041C84.0841 22.1671 83.9911 21.8355 83.81 21.5511C83.6289 21.2667 83.3677 21.0423 83.0594 20.9059C82.751 20.7695 82.4092 20.7273 82.077 20.7847C81.8536 20.8232 81.6402 20.9057 81.4491 21.0275C81.2579 21.1492 81.0929 21.3078 80.9635 21.4939C80.8342 21.68 80.7432 21.8899 80.6957 22.1115C80.6482 22.3331 80.6452 22.5619 80.687 22.7847Z" fill="#0C1C33"/>
<path d="M74.7969 20.6646L77.5669 31.4745L82.8269 28.4045L74.7969 20.6646Z" fill="#CF7578"/>
<path d="M84.2973 18.7444L80.1973 18.0944C80.2289 17.8269 80.3143 17.5686 80.4482 17.335C80.5822 17.1013 80.762 16.8971 80.9767 16.7346C81.1915 16.5721 81.4369 16.4547 81.6982 16.3893C81.9595 16.324 82.2313 16.3121 82.4973 16.3544C83.0467 16.4456 83.54 16.7447 83.875 17.1896C84.2101 17.6344 84.3613 18.1911 84.2973 18.7444Z" fill="#0C1C33"/>
<path d="M66.7572 21.6746L70.2672 19.3646C70.1293 19.1262 69.9438 18.9189 69.7221 18.7556C69.5005 18.5923 69.2475 18.4765 68.979 18.4155C68.7105 18.3544 68.4323 18.3495 68.1618 18.401C67.8914 18.4525 67.6344 18.5592 67.4071 18.7146C66.9381 19.029 66.6086 19.5125 66.4875 20.064C66.3664 20.6156 66.463 21.1926 66.7572 21.6746Z" fill="#0C1C33"/>
<path d="M84.8071 10.9446C67.5671 12.3446 60.9471 20.2346 60.9471 20.2346C58.6146 22.291 56.7465 24.8204 55.4671 27.6546C54.4644 27.4776 53.4319 27.5983 52.4971 28.0017C51.5623 28.4052 50.7662 29.0737 50.2071 29.9246C49.5652 28.8455 49.0804 27.6805 48.7671 26.4646C47.1071 20.7946 45.9771 8.8746 58.8371 3.2146C70.6471 -1.9854 79.4171 -0.695401 82.6171 5.7746C83.3171 7.1646 84.8471 10.9346 84.8071 10.9446Z" fill="#2FACBB"/>
<path opacity="0.35" d="M84.8071 10.9446C67.5671 12.3446 60.9471 20.2346 60.9471 20.2346C58.6146 22.291 56.7465 24.8204 55.4671 27.6546C54.4644 27.4776 53.4319 27.5983 52.4971 28.0017C51.5623 28.4052 50.7662 29.0737 50.2071 29.9246C49.5652 28.8455 49.0804 27.6805 48.7671 26.4646C47.1071 20.7946 45.9771 8.8746 58.8371 3.2146C70.6471 -1.9854 79.4171 -0.695401 82.6171 5.7746C83.3171 7.1646 84.8471 10.9346 84.8071 10.9446Z" fill="white"/>
<path opacity="0.3" d="M61.567 16.4548C59.677 17.6748 57.507 19.2448 55.387 18.4548C54.7873 18.201 54.2572 17.807 53.8414 17.3059C53.4255 16.8047 53.1359 16.2111 52.997 15.5748C52.7416 14.2944 52.793 12.9716 53.1471 11.7148C53.9274 8.66035 55.5528 5.88767 57.837 3.71484C46.047 9.54484 47.147 20.9749 48.767 26.4949C49.0803 27.7107 49.5652 28.8757 50.207 29.9548C50.7661 29.1039 51.5622 28.4354 52.497 28.032C53.4318 27.6285 54.4644 27.5079 55.467 27.6848C56.7465 24.8507 58.6145 22.3213 60.947 20.2648C60.947 20.2648 64.587 15.9348 73.467 13.1248C69.2461 12.932 65.0748 14.0992 61.567 16.4548Z" fill="#2FACBB"/>
<path d="M60.4473 18.6548C61.7907 14.7128 64.1541 11.197 67.2973 8.46482C70.7773 5.26482 78.8873 3.22482 82.5473 2.46482C88.9573 1.06482 90.7972 2.14482 91.0872 3.12482C91.1572 3.36482 91.4873 4.44482 91.5773 4.68482C91.6527 4.90521 91.6527 5.14443 91.5773 5.36482C90.9573 7.13482 86.3672 11.0248 86.3672 11.0248C77.8872 10.5648 68.2073 14.3048 60.9473 20.2848L60.4473 18.6548Z" fill="#2FACBB"/>
<path opacity="0.55" d="M60.4473 18.6548C61.7907 14.7128 64.1541 11.197 67.2973 8.46482C70.7773 5.26482 78.8873 3.22482 82.5473 2.46482C88.9573 1.06482 90.7972 2.14482 91.0872 3.12482C91.1572 3.36482 91.4873 4.44482 91.5773 4.68482C91.6527 4.90521 91.6527 5.14443 91.5773 5.36482C90.9573 7.13482 86.3672 11.0248 86.3672 11.0248C77.8872 10.5648 68.2073 14.3048 60.9473 20.2848L60.4473 18.6548Z" fill="white"/>
<path d="M60.9473 20.2548C68.2073 14.2548 78.1072 10.8648 86.3672 10.9948C86.3672 10.9948 90.9573 7.10481 91.5773 5.33481C91.9073 4.33481 90.9773 2.33481 83.0473 4.02481C79.3773 4.82481 71.2773 6.87481 67.7973 10.0248C64.6505 12.7699 62.287 16.2997 60.9473 20.2548Z" fill="#2FACBB"/>
<path opacity="0.2" d="M60.9473 20.2548C68.2073 14.2548 78.1072 10.8648 86.3672 10.9948C86.3672 10.9948 90.9573 7.10481 91.5773 5.33481C91.9073 4.33481 90.9773 2.33481 83.0473 4.02481C79.3773 4.82481 71.2773 6.87481 67.7973 10.0248C64.6505 12.7699 62.287 16.2997 60.9473 20.2548Z" fill="black"/>
<path d="M52.5271 53.1948C52.5271 53.1948 58.7171 61.3548 58.9671 76.3448C59.5371 110.495 39.3871 122.845 39.3871 122.845C39.3516 118.671 39.5352 114.499 39.9371 110.345C39.9371 110.345 48.9371 99.4748 49.8371 80.1348C50.4571 66.2848 47.6271 58.6748 44.4371 55.2248C44.4371 55.2548 46.8671 53.8948 52.5271 53.1948Z" fill="#2FACBB"/>
<path d="M74 89.9652C77.67 87.6952 79.5 86.8552 81.15 86.5352C82.8 86.2152 88.65 84.3652 90.87 84.0152C92.27 83.7952 92.64 86.0152 90.76 87.3852C89.31 88.3852 85.67 89.6252 84.06 90.3352C82.45 91.0452 79.12 94.4452 79.12 94.4452L74 89.9652Z" fill="#CF7578"/>
<path d="M35.4972 61.9344C38.6372 58.2944 40.1072 57.5344 44.0972 56.2344C55.5872 62.2344 48.3072 84.5444 48.3072 84.5444L41.9572 102.984C41.9572 102.984 57.3072 102.414 59.7772 101.124C62.2472 99.8344 69.0972 93.6444 71.3772 91.8144C74.4772 89.3144 75.8672 89.8144 77.2972 90.1544C81.9972 91.2844 83.0072 91.7744 83.9572 92.5044C84.239 92.7363 84.4575 93.0359 84.5921 93.3752C84.7268 93.7145 84.7733 94.0823 84.7272 94.4444C85.9772 94.7044 87.8672 94.8344 87.9372 96.9344C87.9939 97.4915 87.9704 98.0539 87.8672 98.6044C88.1818 98.6889 88.4574 98.8797 88.6472 99.1444C89.5872 100.454 87.4172 104.524 86.1772 105.444C85.3072 106.104 84.1772 106.094 82.6672 105.754C81.3972 105.464 82.1072 104.214 82.1072 104.214L80.3072 104.164C76.1972 106.574 75.5172 112.014 70.3072 112.764C68.1711 112.791 66.042 113.015 63.9472 113.434C52.5972 116.164 36.4372 122.584 26.5372 122.574C16.8772 122.574 19.3472 111.634 20.6172 104.624C21.5472 99.4544 30.2372 68.0444 35.4972 61.9344Z" fill="#E69799"/>
<path d="M41.9575 102.985C38.4338 102.479 34.8469 102.628 31.3774 103.425C34.2874 100.095 42.9575 100.095 42.9575 100.095L41.9575 102.985Z" fill="#CF7578"/>
<path d="M84.7573 94.4447L79.1973 92.8047L84.7073 93.6447C84.7681 93.9067 84.785 94.1771 84.7573 94.4447Z" fill="#CF7578"/>
<path d="M87.8672 98.6048L81.4272 97.1948L87.9372 97.8548C87.9423 98.1067 87.9188 98.3583 87.8672 98.6048Z" fill="#CF7578"/>
<path d="M85.7571 101.915C85.4654 101.994 85.1678 102.051 84.8671 102.085C84.1044 102.128 83.3399 102.128 82.5771 102.085C82.3965 102.559 82.0799 102.969 81.6671 103.265C81.2315 103.603 80.7775 103.917 80.3071 104.205L82.1071 104.255C82.6116 103.714 83.3086 103.395 84.0471 103.365C84.3517 103.341 84.6551 103.422 84.9071 103.595C85.1651 103.8 85.3707 104.064 85.5071 104.365C85.4397 104.022 85.2686 103.707 85.0172 103.465C84.8318 103.304 84.6078 103.193 84.3671 103.145L84.8071 102.375C85.1493 102.332 85.485 102.248 85.8071 102.125C86.1822 101.988 86.5114 101.749 86.7571 101.435C86.4634 101.667 86.1219 101.831 85.7571 101.915Z" fill="#CF7578"/>
<path d="M44.3571 55.0947C37.0271 57.6347 34.3571 59.7047 31.7271 66.0947C28.4071 74.0947 23.8971 91.5447 22.7271 94.8347C27.1771 100.405 34.0971 101.285 43.1971 101.065C43.1971 101.065 47.577 88.1947 48.807 85.3747C50.037 82.5547 55.4471 61.2547 44.3571 55.0947Z" fill="#37474F"/>
</svg>
