<svg width="24" height="24" viewBox="0 0 24 24" fill="none" xmlns="http://www.w3.org/2000/svg">
<path fill-rule="evenodd" clip-rule="evenodd" d="M9.5 1C9.28363 1 9.0731 1.07018 8.9 1.2C8.7269 1.32982 8.60058 1.51228 8.54 1.72L5.04 13.72C4.99653 13.869 4.98836 14.0261 5.01613 14.1789C5.0439 14.3316 5.10685 14.4758 5.2 14.6C5.29315 14.7242 5.41393 14.825 5.55279 14.8944C5.69164 14.9639 5.84476 15 6 15H9.867L9.007 21.876C8.97867 22.0998 9.02681 22.3265 9.14361 22.5195C9.2604 22.7124 9.43899 22.8602 9.65038 22.9388C9.86176 23.0175 10.0935 23.0224 10.308 22.9527C10.5225 22.883 10.7072 22.7429 10.832 22.555L18.832 10.555C18.9325 10.4044 18.9902 10.2293 18.999 10.0485C19.0078 9.86769 18.9673 9.68786 18.8819 9.52823C18.7965 9.3686 18.6693 9.23516 18.514 9.14213C18.3587 9.04909 18.181 8.99997 18 9H14.443L16.936 2.351C16.9927 2.19974 17.0119 2.03699 16.992 1.87669C16.9721 1.71638 16.9136 1.56329 16.8216 1.43051C16.7296 1.29772 16.6068 1.1892 16.4637 1.11423C16.3207 1.03925 16.1615 1.00006 16 1H9.5Z" fill="black"/>
</svg>
