<svg width="60" height="60" viewBox="0 0 60 60" fill="none" xmlns="http://www.w3.org/2000/svg">
<circle cx="30" cy="30" r="30" fill="white"/>
<path d="M31.5301 42.2279C31.3617 42.0641 31.2273 41.8686 31.1346 41.6527C31.0419 41.4369 30.9928 41.2048 30.9899 40.9699C30.9871 40.7349 31.0307 40.5018 31.1181 40.2837C31.2056 40.0657 31.3353 39.867 31.4997 39.6992L39.0663 31.948L17.2007 32.2115C16.7273 32.2172 16.2711 32.0346 15.9323 31.7039C15.5935 31.3732 15.4 30.9214 15.3943 30.448C15.3886 29.9746 15.5712 29.5184 15.9019 29.1796C16.2326 28.8408 16.6843 28.6473 17.1577 28.6416L39.0233 28.3781L31.2721 20.8085C30.9327 20.4773 30.7389 20.0247 30.7331 19.5505C30.7274 19.0763 30.9103 18.6192 31.2416 18.2799C31.5729 17.9405 32.0254 17.7466 32.4996 17.7409C32.9739 17.7352 33.4309 17.9181 33.7703 18.2494L44.609 28.83C44.7774 28.9939 44.9118 29.1893 45.0045 29.4052C45.0972 29.6211 45.1464 29.8531 45.1492 30.088C45.152 30.323 45.1085 30.5561 45.021 30.7742C44.9335 30.9922 44.8039 31.1909 44.6395 31.3587L34.0588 42.1974C33.895 42.3658 33.6995 42.5002 33.4837 42.5929C33.2678 42.6856 33.0357 42.7348 32.8008 42.7376C32.5659 42.7405 32.3327 42.6969 32.1147 42.6094C31.8966 42.5219 31.698 42.3923 31.5301 42.2279Z" fill="black"/>
</svg>
