<svg width="58" height="58" viewBox="0 0 58 58" fill="none" xmlns="http://www.w3.org/2000/svg">
<g filter="url(#filter0_d_404_4524)">
<circle cx="29" cy="25" r="25" fill="#0C1C33"/>
</g>
<path d="M21.5 21.25V28.75C21.5 31.25 22.75 32.5 25.25 32.5H32.75C35.25 32.5 36.5 31.25 36.5 28.75V25C36.5 24.25 36 23.75 35.25 23.75C34.5 23.75 34 23.25 34 22.5V21.25C34 18.75 32.75 17.5 30.25 17.5H25.25C22.75 17.5 21.5 18.75 21.5 21.25Z" stroke="white" stroke-width="1.5" stroke-miterlimit="10"/>
<path d="M26.5 22.5H29M26.5 27.5H31.5" stroke="white" stroke-width="1.5" stroke-miterlimit="10" stroke-linecap="round" stroke-linejoin="round"/>
<path d="M32.75 37.5H25.25C19 37.5 16.5 35 16.5 28.75V21.25C16.5 15 19 12.5 25.25 12.5H32.75C39 12.5 41.5 15 41.5 21.25V28.75C41.5 35 39 37.5 32.75 37.5Z" stroke="white" stroke-width="1.5" stroke-linecap="round" stroke-linejoin="round"/>
<defs>
<filter id="filter0_d_404_4524" x="0" y="0" width="58" height="58" filterUnits="userSpaceOnUse" color-interpolation-filters="sRGB">
<feFlood flood-opacity="0" result="BackgroundImageFix"/>
<feColorMatrix in="SourceAlpha" type="matrix" values="0 0 0 0 0 0 0 0 0 0 0 0 0 0 0 0 0 0 127 0" result="hardAlpha"/>
<feOffset dy="4"/>
<feGaussianBlur stdDeviation="2"/>
<feComposite in2="hardAlpha" operator="out"/>
<feColorMatrix type="matrix" values="0 0 0 0 0 0 0 0 0 0 0 0 0 0 0 0 0 0 0.25 0"/>
<feBlend mode="normal" in2="BackgroundImageFix" result="effect1_dropShadow_404_4524"/>
<feBlend mode="normal" in="SourceGraphic" in2="effect1_dropShadow_404_4524" result="shape"/>
</filter>
</defs>
</svg>
